<?xml version="1.0" encoding="UTF-8"?>
<!DOCTYPE svg PUBLIC "-//W3C//DTD SVG 1.1//EN" "http://www.w3.org/Graphics/SVG/1.1/DTD/svg11.dtd">
<!-- Creator: CorelDRAW 2020 (64-Bit) -->
<svg xmlns="http://www.w3.org/2000/svg" xml:space="preserve" width="2035px" height="1386px" version="1.1" style="shape-rendering:geometricPrecision; text-rendering:geometricPrecision; image-rendering:optimizeQuality; fill-rule:evenodd; clip-rule:evenodd"
viewBox="0 0 2035 1386"
 xmlns:xlink="http://www.w3.org/1999/xlink"
 xmlns:xodm="http://www.corel.com/coreldraw/odm/2003">
 <defs>
  <style type="text/css">
   <![CDATA[
    .fil0 {fill:#B3B3B3}
    .fil1 {fill:#E5E5E5}
   ]]>
  </style>
 </defs>
 <g id="Layer_x0020_1">
  <metadata id="CorelCorpID_0Corel-Layer"/>
  <g id="_2645884660128">
   <path class="fil0" d="M1723.99 859c-19,0 -10.71,-0.68 -19.14,-1.86l-17.9 -1.1 -31.35 -9.65c-0.21,-0.1 -0.46,-0.23 -0.67,-0.33l-1.33 -0.67c-0.28,-0.14 -1.08,-0.51 -1.35,-0.65 -0.2,-0.1 -0.47,-0.23 -0.67,-0.34l-9.9 -5.09c-0.22,-0.1 -0.49,-0.2 -0.71,-0.3 -6.14,-2.8 -18.57,-11.74 -23.58,-16.42 -0.15,-0.14 -0.36,-0.35 -0.51,-0.49l-3.98 -4.02c-0.94,-0.94 -1.38,-1.38 -2.5,-2.5l-5.5 -5.49c-0.15,-0.15 -0.36,-0.35 -0.51,-0.5 -0.21,-0.2 -0.81,-0.77 -1.02,-0.98l-14.55 -20.44c-1.04,-1.9 -1.95,-4.09 -2.96,-6.05l-10.42 -23.57c-4.11,-10.41 -1.49,-7.35 -3.18,-11.82 -1.89,-5 -2.07,0.04 -2.29,-7.71 -0.4,-13.94 -3.12,1.34 -2.98,-26.03 0.04,-7.45 -1.55,-12.35 -0.96,-18.92l1.07 -27.95c0.58,-3.3 2.04,-3.52 2.66,-7.34 0.53,-3.23 -0.26,-5.25 0.77,-8.24 1.38,-4.04 1.84,-1.08 2.42,-7.57 0.81,-8.95 0.26,-1.4 2.48,-7.52l5.1 -13.91c1.27,-2.62 2.25,-4.55 3.36,-6.64 0.52,-0.98 1.12,-2.11 1.78,-3.22l4.15 -7.84c5.46,-8.66 11.06,-16.62 18.25,-23.76 0.14,-0.15 0.35,-0.35 0.5,-0.5l1.5 -1.5c0.14,-0.14 0.35,-0.35 0.5,-0.5l4.5 -4.5c0.97,-0.97 1.36,-1.38 2.48,-2.51 0.34,-0.34 2.53,-2.42 2.56,-2.44 0.16,-0.13 0.4,-0.31 0.56,-0.44l21.04 -14.96c0.18,-0.12 0.41,-0.29 0.6,-0.41l16.65 -8.35c0.21,-0.1 0.47,-0.22 0.68,-0.32 11.32,-5.15 10.31,-3.07 14.14,-4.86 7.49,-3.5 2.31,0.35 14.9,-4.1 5.4,-1.91 13.46,-0.58 19.35,-0.65 10.3,-0.13 4.37,-1.17 17.01,-0.09 2.99,0.25 6.86,0.06 9.95,0.05 17.99,-0.03 9.98,-0.07 16.57,2.43 3.17,1.2 5.08,-0.02 8.09,0.91 3.94,1.21 1.02,0.91 3.12,1.87l12.58 4.43c1.09,0.46 1.48,0.78 1.97,1.03l15.92 8.08c1.47,0.94 3.91,3.33 5.67,4.32l28.69 24.32c1.39,1.49 1.07,0.91 2.38,2.61l19.73 29.28c0.13,0.28 0.46,1.13 0.59,1.41 0.1,0.21 0.21,0.48 0.31,0.68l2.73 6.27c0.73,1.89 0.13,0.38 0.96,2.05l1.8 4.19c0.09,0.24 0.15,0.53 0.25,0.76l6.8 20.2c1.86,3.75 0.56,-1.65 1.67,3.33 1.2,5.4 -0.64,6.7 1.96,12.03 2.81,5.73 1.05,21.68 1.93,28.07 1.28,9.25 -0.81,18.33 -0.71,27.75 0.14,12.51 -2.96,7.57 -3.06,15.94 -0.13,11.72 -1.77,5.33 -2.89,12.1 -1.03,6.18 -4,11.99 -5.98,18.03l-6.38 14.61c-0.1,0.21 -0.21,0.48 -0.31,0.69l-14.7 22.31c-1.74,2.16 -2.69,3.39 -4.41,5.58l-7.2 7.81c-0.14,0.14 -0.35,0.36 -0.49,0.5 -0.15,0.15 -0.35,0.36 -0.5,0.51l-26.01 19.99c-0.2,0.1 -0.46,0.23 -0.67,0.33 -0.2,0.1 -0.48,0.2 -0.69,0.3 -1.07,0.49 -0.95,0.32 -2.12,0.88 -1.64,0.81 -1.61,0.93 -3.16,1.85 -0.92,0.55 -2.47,1.39 -3.21,1.79 -9.85,5.23 -17.91,8.21 -28.69,10.3l-3.81 1.19c-0.23,0.08 -0.47,0.23 -0.69,0.31l-11.9 1.11c-3.32,0.36 -4.52,0.68 -9.18,0.82 -7.1,0.21 -4.73,2.03 -7.96,2.03zm131.99 -434c-6.12,0 -5.61,-0.89 -10,-3 -0.21,-0.1 -0.48,-0.2 -0.69,-0.3l-12.91 -6.09c-0.21,-0.1 -0.47,-0.23 -0.67,-0.34l-27.45 -10.55c-3.5,-1.3 -4.43,-0.22 -7.96,-1.04 -2.02,-0.47 -3.86,-2.02 -6.54,-2.46 -3.28,-0.54 -5.03,0.19 -8.23,-0.76 -1.52,-0.45 -1.02,-0.51 -2.82,-1.19 -4.67,-1.75 -8.16,-1.01 -12.76,-1.24 -6.42,-0.31 -9.54,-3.03 -24.96,-3.03 -13.82,0 -41.16,-1.34 -53.61,0.39 -6.37,0.89 -8.36,2.64 -14.33,2.67 -2.87,0.01 -6.16,-0.28 -8.98,0.03l-4.72 1.28c-0.21,0.09 -0.45,0.24 -0.66,0.33 -0.22,0.09 -0.46,0.24 -0.67,0.33 -0.22,0.09 -0.46,0.23 -0.69,0.31 -0.24,0.09 -0.48,0.2 -0.74,0.27 -0.32,0.09 -7.7,-0.03 -11.55,1.44 -0.23,0.09 -0.47,0.22 -0.69,0.31l-1.34 0.67c-4.92,1.96 -2.6,-0.49 -12.71,3.28 -3.82,1.42 -4.36,0.05 -8.25,1.75l-59.74 25.27c-0.18,0.11 -0.42,0.28 -0.6,0.4l-11.47 6.53c-0.2,0.11 -0.47,0.22 -0.67,0.32l-26.16 18.84c-0.16,0.13 -0.39,0.32 -0.55,0.45l-11.71 9.3c-0.22,0.18 -0.86,0.73 -1.07,0.92 -0.15,0.14 -0.37,0.35 -0.52,0.49l-52.9 65.1c-0.11,0.18 -0.27,0.42 -0.38,0.61 -0.11,0.2 -0.26,0.45 -0.36,0.64 -0.11,0.21 -0.23,0.47 -0.33,0.67l-7.24 13.77c-0.14,0.27 -0.56,1.02 -0.7,1.29l-21.03 55.97c-1.79,3.78 -0.84,6.87 -1.81,11.2 -1.1,4.94 -2.64,2.97 -2.8,11.2 -0.1,5.18 -0.53,4.05 -1.85,7.15 -2.34,5.53 -0.48,9.48 -1.19,15.8 -0.46,4.12 -0.94,2.38 -2.11,6.9 -1.37,5.27 -2.25,70.09 0.7,77.55 1.76,4.44 1.54,3.49 1.45,9.55 -0.19,12.71 2.77,11.69 3.01,18.99 0.29,9.02 1.86,6.3 2.84,12.15 0.32,1.93 -0.06,3.99 0.14,5.87 0.72,6.71 1.92,1.03 2.94,8.06l7.59 25.41c0.1,0.2 0.27,0.43 0.37,0.63 0.6,1.24 -0.08,-1 0.88,2.12 0.85,2.79 0.07,1.83 1.28,4.72l34.32 62.67c0.15,0.15 0.37,0.34 0.52,0.49 3.61,3.61 4.84,7.88 8.48,11.52l6.03 5.96c0.56,0.55 2.16,2.23 2.45,2.56 0.13,0.15 0.32,0.38 0.45,0.54l21.07 20.94c3.04,3.03 7.11,4.68 10.46,7.53l1.05 0.96c0.15,0.14 0.35,0.35 0.5,0.49 4.89,4.66 11.19,8.31 17.15,11.86l5.16 2.83c0.19,0.11 0.44,0.26 0.63,0.38l1.22 0.78c11.85,7.77 26.03,13.97 39.47,18.53l28.97 9.03c6.83,0.8 4.55,1.76 8.29,2.71 6.16,1.57 4.02,-1.01 13.37,2.63 3.06,1.19 6.92,0.27 10.35,0.65 5.29,0.59 2.66,2.39 7.97,3.02 1.28,0.16 4.56,0.03 6.01,0l7.91 0.09c8.33,1.64 -3.22,2.93 21.1,2.9 24.17,-0.03 5.09,3.3 41.02,2.97 5.45,-0.05 5.58,-0.54 9.55,1.45 5.11,2.56 13.48,0.36 18.37,2.63l9.08 1.93c7.63,0.43 2.24,1.78 8.13,2.87 1.67,0.31 3.02,0 4.7,0.3 3.33,0.61 2.69,1.39 5.5,2.5l21.21 9.78c1.32,1.08 1.53,1.19 3.03,1.98 1.09,0.59 1.06,0.43 2.02,0.98 1.65,0.94 0.28,0.04 1.81,1.19l22.84 20.15c1.05,1.11 1.41,1.42 2.45,2.56l12.86 19.14c0.24,0.39 1.13,1.8 1.16,1.84l5.25 12.75c1.48,2.92 1.24,0.42 1.88,4.11 0.29,1.65 0,3.23 0.17,4.83 0.54,4.93 -0.02,1.22 1.67,4.34 2.9,5.34 1.28,25.42 1.3,31.7 0.05,14.73 -2.17,9.2 -3.01,19l-2.63 7.36c-0.56,1.9 -0.18,2.38 -0.72,4.28 -0.92,3.19 -0.63,1.05 -2,4.01 -0.75,1.64 -0.64,1.96 -1.4,3.6l-5.68 11.32c-8.53,14.11 -17.07,24.59 -30.72,34.28l-25.57 15.43 -14.17 4.82c-3.09,1.37 -0.51,1.03 -4.28,1.72 -7.63,1.4 -5.66,1.91 -9.12,2.88 -2.82,0.79 -5.55,-0.02 -8.5,0.51 -7.95,1.44 1.73,2.82 -19.2,2.79 -8.15,-0.01 -13.01,1 -19.98,1.05 -7.92,0.05 -12.45,-1.1 -21.03,-1.05 -3.4,0.02 -8.38,0.49 -11.33,-0.66l-6.68 -2.32c-1.59,-0.11 -3.51,0.13 -5.02,0.02 -6.57,-0.49 -1.92,-0.1 -4.52,-1.49 -5.43,-2.91 -4.1,-0.42 -9.03,-1.96l-19.53 -7.47c-1.32,-0.61 -2.8,-1.15 -4.16,-1.84 -1.11,-0.56 -1.19,-0.79 -3.24,-1.76 -1.06,-0.5 -1.11,-0.41 -2.11,-0.9l-35.97 -29.03 -23.03 -38.96c-1.17,-3.11 -0.93,-0.25 -2.03,-3.98l-2.5 -8.49c-1.45,-3.39 -0.75,-5.88 -0.8,-10.2 -0.07,-5.74 -1.61,-8.29 -3.12,-12.89 -0.74,-2.26 0.28,-3.07 -2.92,-3.07l-144.01 0c-6.05,0 -2.6,7.57 -1.83,9.8 2.29,6.58 -0.53,16.56 1.38,23.66 1.71,6.37 1.32,1.06 2.28,5.72 1.5,7.29 -1.28,7.3 2.03,14.96 1.59,3.68 1.02,1.85 1.15,6.86 0.13,5.14 1.58,5.34 2.65,9.34 0.45,1.65 0.21,1.96 0.5,3.51 0.84,4.55 1.66,3.33 2.5,6.5 1.07,4.02 -0.39,2.57 1.49,6.5l1.41 2.6c0.58,1.59 0.32,1.63 0.76,3.24l13.81 31.19c0.44,0.86 1.16,2.36 1.68,3.32 0.9,1.64 0.94,1.54 1.47,2.53 0.59,1.11 0.7,1.5 1.32,2.68l19.73 28.27c0.12,0.17 0.29,0.41 0.41,0.59l19.68 22.31c0.15,0.15 0.36,0.36 0.5,0.5l77.48 53.52 14.77 6.24c0.19,0.1 0.43,0.27 0.62,0.38l2.59 1.4c2.62,0.79 3.36,0.04 5.85,1.16 4.31,1.95 -1.5,0.98 5.77,2.23 8.34,1.43 0.3,0.12 5.67,2.33 3.14,1.3 3.39,0 6.55,1.44 4.29,1.96 -1.24,1.5 6.76,2.24 7.87,0.74 3.1,2.64 13.07,2.94 8.08,0.24 2.76,1.28 7.28,2.71l6.65 0.36c6.15,0.6 2.79,3.15 13.01,2.98 8.86,-0.14 9.08,2.99 14.02,2.99 13.35,0 80.49,1.49 88.25,-0.75 4.49,-1.29 2.1,-1.47 5.87,-2.12 3.64,-0.63 11.82,-0.06 15.93,-0.07 9.28,-0.03 5.91,-2.42 11.95,-3.06 3.68,-0.39 8.89,0.15 11,-1l1.74 -1.25c2.43,-1.17 4.62,-0.59 7.28,-0.72 6.02,-0.29 6.03,-2.54 9.03,-2.97l6.41 -1.59c1.67,-0.86 0.52,-0.62 2.77,-1.23 1.51,-0.41 1.76,-0.12 3.39,-0.61l13 -5c0.23,-0.1 0.5,-0.18 0.74,-0.26l2.26 -0.74c0.22,-0.1 0.48,-0.21 0.69,-0.31l5.46 -2.55c0.24,-0.08 0.52,-0.15 0.75,-0.24l13.18 -5.82c0.22,-0.1 0.48,-0.21 0.7,-0.31l4.6 -2.39c0.22,-0.1 0.49,-0.2 0.7,-0.3 0.22,-0.1 0.49,-0.21 0.69,-0.31l25.43 -14.57c0.19,-0.12 0.45,-0.26 0.64,-0.37 1.32,-0.78 1.42,-0.84 2.47,-1.53l35.15 -27.84c0.15,-0.14 0.36,-0.35 0.51,-0.49l32.61 -37.4c0.39,-0.66 1.02,-1.74 1.52,-2.48 0.79,-1.16 0.54,-0.61 1.68,-2.31l3.88 -6.13c0.12,-0.17 0.29,-0.41 0.4,-0.59 0.12,-0.18 0.29,-0.42 0.4,-0.61l14.36 -28.63c0.09,-0.22 0.21,-0.48 0.31,-0.7 0.09,-0.2 0.24,-0.45 0.34,-0.65l2.03 -4.97c0.08,-0.25 0.14,-0.53 0.22,-0.78l2.82 -7.18c0.09,-0.23 0.18,-0.51 0.27,-0.73l1.05 -1.95c2.29,-4.46 0.66,-1.38 1.69,-6.31 1,-4.77 1.12,-1.37 2.37,-5.64 0.79,-2.72 0.15,-3.79 0.61,-6.39 0.97,-5.63 1.91,-0.1 2.82,-13.17 0.2,-2.86 1.08,-3.49 2.1,-5.9 2.03,-4.78 0,-9.49 1.24,-14.77 0.81,-3.46 2.69,-8.04 2.69,-13.31 0,-12.09 1.9,-55.96 -1.73,-65.27 -1.3,-3.32 -0.45,2.13 -1.23,-3.78 -0.36,-2.76 0.25,-5.82 -0.25,-8.74 -0.46,-2.64 -2,-4.52 -2.48,-6.52 -0.82,-3.49 -0.29,-6.61 -1.82,-10.19l-6.01 -17.98c-0.1,-0.21 -0.27,-0.43 -0.37,-0.63 -0.1,-0.21 -0.25,-0.45 -0.35,-0.66l-8.97 -19.03c-0.11,-0.18 -0.26,-0.43 -0.37,-0.62l-3.21 -5.8c-0.53,-0.98 -0.45,-0.98 -1,-1.99l-11.2 -15.8c-1.41,-1.73 -1.93,-2.56 -3.35,-4.65 -0.16,-0.25 -0.63,-0.96 -0.8,-1.2l-31.07 -29.93c-2.87,-1.97 -1.97,-1.33 -4.38,-3.62l-23.87 -16.14c-4.54,-2.67 -10.11,-7.27 -14.54,-8.45 2.14,-3.2 5.88,-4.85 9.17,-6.82l32.42 -22.59c0.15,-0.14 0.36,-0.34 0.51,-0.49 0.14,-0.14 0.35,-0.35 0.5,-0.5 3.31,-3.28 4.02,-6.12 8.4,-6.6 0.55,-5.05 1.91,-3.77 6.59,-8.41 0.94,-0.94 0.68,-0.65 1.5,-1.5l7.11 -8.88c0.12,-0.18 0.26,-0.44 0.38,-0.62l3.56 -4.45c0.13,-0.16 0.33,-0.38 0.46,-0.53l15.09 -22.91c0.56,-0.89 0.85,-1.29 1.59,-2.42 0.12,-0.17 0.29,-0.41 0.4,-0.59l3.05 -5.95c0.11,-0.2 0.25,-0.45 0.36,-0.65l5.21 -10.79c0.09,-0.21 0.2,-0.48 0.3,-0.7l5.85 -16.15c0.81,-2.45 0.03,-0.08 0.98,-2.01l4.61 -14.39c0.85,-5.88 1.07,-2.14 2.38,-5.63 1.05,-2.82 0.24,-3.39 0.73,-6.26 0.87,-5.11 2.35,-3.27 2.84,-12.17 0.44,-8.02 3.16,-4.61 2.98,-20.02 -0.07,-6.01 1.39,-6.63 2.04,-12.96 1.24,-12.23 2.39,-42.08 -0.35,-53.67 -0.93,-3.9 -1.04,-0.22 -1.64,-5.36 -0.69,-5.81 0.86,-14.64 -0.77,-20.23 -1.31,-4.49 -1.51,-2.14 -2.11,-5.89 -1.14,-7.05 0.86,-5.35 -2,-12.01 -1.47,-3.43 -0.91,-0.96 -1.15,-5.84 -0.26,-5.32 -0.8,-4.13 -2.4,-8.6l-14.66 -38.35c-0.11,-0.19 -0.26,-0.43 -0.37,-0.62 -0.11,-0.2 -0.25,-0.46 -0.35,-0.65l-22.07 -35.94c-1.1,-1.45 -1.95,-2.49 -3.02,-3.97 -1.67,-2.31 -1.17,-1.78 -2.68,-4.32l-5.44 -9.56c4.09,-2.74 12.08,-14 15.18,-18.81 0.12,-0.19 0.27,-0.44 0.39,-0.62l6.43 -7.56c0.13,-0.17 0.31,-0.4 0.44,-0.57l6.47 -8.53c0.14,-0.15 0.35,-0.36 0.49,-0.51 0.14,-0.15 0.35,-0.36 0.49,-0.51l31.57 -40.42c3.45,-5.22 -0.98,-7.71 -4.92,-11.01l-19.28 -14.72c-0.18,-0.12 -0.43,-0.27 -0.61,-0.39l-18.17 -13.83c-6.91,-5.97 -15.39,-10.56 -22.08,-16.93 -5.21,-4.96 -14.56,-10.52 -20.85,-15.15l-13.68 -10.31c-3.89,-3.16 -9.69,-3.22 -13.07,0.67l-2.71 3.29c-0.15,0.15 -0.36,0.35 -0.5,0.5l-6.68 7.33c-0.14,0.14 -0.36,0.34 -0.51,0.49l-7.3 9.69c-0.14,0.16 -0.35,0.36 -0.49,0.52l-15.39 18.6c-0.13,0.16 -0.32,0.39 -0.45,0.55 -0.14,0.16 -0.33,0.38 -0.46,0.54l-7.36 9.64c-1.27,1.54 -2.16,2.69 -3.59,4.42 -2.48,3 -5.38,5.95 -6.37,9.63z"/>
   <path class="fil0" d="M154.99 478c0,-16.27 -0.88,-9.04 -2.71,-15.29 -1.61,-5.5 0.84,-12.87 -0.99,-18.02 -3.24,-9.16 -1.97,-6.63 -2.23,-16.76l-4.07 -14.93 -137 0c-0.53,2.24 -1,2.3 -1,5l0 587c0,2.7 0.47,2.76 1,5l147 0c2.86,-12.29 1,-52.7 1,-69 0,-24.12 1,-45.75 1,-69 0,-23.33 0,-46.67 0,-70l0.99 -121c-0.05,-12.56 0.02,-6.39 2.57,-15.43 1.41,-5 -0.65,-11.18 0.88,-16.13 1.43,-4.63 1.63,-0.6 2.49,-6.51 1.24,-8.57 4.7,-14.96 8.45,-22.54 0.1,-0.21 0.22,-0.47 0.32,-0.68l5.34 -10.67c0.11,-0.19 0.24,-0.45 0.35,-0.65l21.19 -28.8c4.43,-4.7 9.36,-9.75 14.87,-13.13l19.24 -11.77c0.21,-0.1 0.47,-0.21 0.68,-0.32 0.28,-0.13 1.02,-0.56 1.29,-0.7 0.2,-0.11 0.43,-0.27 0.63,-0.37l12.64 -4.36c8.44,-1.4 -0.85,-2.95 19.07,-2.94l35.06 -0.07c5.98,0.03 3.58,-0.19 7.36,1.64 4.21,2.05 6.4,0.94 10.04,2.96l31.71 20.3 14.24 14.75c0.15,0.15 0.37,0.34 0.51,0.49 0.15,0.15 0.37,0.34 0.52,0.49l4.55 6.45c0.13,0.16 0.32,0.39 0.45,0.55 0.13,0.16 0.34,0.37 0.47,0.53 0.83,1.02 1.51,1.74 2.19,2.8l9.72 16.29c0.1,0.22 0.18,0.5 0.28,0.72 0.1,0.22 0.18,0.5 0.29,0.71l5.43 12.57c1.4,4.79 3.11,6.27 3.18,11.82 0.07,6.06 -0.18,3.15 1.79,7.2 1.96,4 1.21,10.79 1.21,15.8 -0.04,22.62 3,6.4 3,32 -0.01,35.55 -1.36,215.8 0.42,227.58 0.9,5.96 0.38,11.2 0.54,17.46 0.17,6.54 2.04,8.99 2.04,15.96l0 55 145 0c4.88,0 3,-10.33 3,-15l0 -55c0,-13.01 1,-22.66 1,-35 -0.02,-32.31 0.03,-207.19 1.57,-217.42 1.13,-7.42 -0.65,-18.78 1.57,-25.43 1.56,-4.64 0.74,-11.58 2.21,-16.8l8.03 -22.96c0.1,-0.22 0.21,-0.48 0.32,-0.69 0.1,-0.2 0.24,-0.45 0.35,-0.65 1.15,-2.17 0.17,-0.01 1.13,-1.87l22.38 -33.61c0.15,-0.15 0.36,-0.35 0.51,-0.5 0.15,-0.14 0.36,-0.35 0.5,-0.49l2.01 -2c0.2,-0.2 0.79,-0.79 1,-1l9.34 -8.66c0.7,-0.43 1.35,-0.67 2.51,-1.49 9.18,-6.47 18.58,-13.43 29.39,-16.61 3.15,-0.93 3.15,-2.01 6.35,-2.64l6.97 -2.04c1.3,-0.73 -1.64,-0.73 3.78,-1.21 5.53,-0.49 13.25,0.29 19.11,0.1 4.42,-0.14 4.7,-0.92 7.97,-0.92 3.27,0 3.54,0.78 7.96,0.92 5.33,0.17 12.76,-1.32 17.47,0.53 4.2,1.65 -0.43,1.52 6.56,2.45 5,0.66 16.25,4.84 19.96,8.03l10.36 7.65c3.61,2.87 5.81,5.62 9.11,8.89l4.42 4.58c7.87,8.58 14.88,19.87 19.13,30.86 1.97,5.09 5.34,11.64 6.04,16.97 0.65,4.95 0.08,3.06 1.84,7.15 2.02,4.68 0.4,12.03 1.68,17.33 2.12,8.78 2.52,4.56 2.47,15.53 -0.09,17.16 -1.71,38.35 0.14,54.85 1.82,16.18 -0.79,37.07 1,53 0.56,4.93 0.38,12.38 1.13,17.88 2.07,15.11 0.94,169.83 0.64,208.36 -0.03,3.73 -0.77,6.91 3.08,6.91l144 0c2.31,0 3,-0.69 3,-3l0 -41c0,-8.87 -2.02,-13.54 -2.03,-21.96l0.04 -267.04c0,-7.68 0.4,-16.47 0,-24.01 -0.43,-8.25 -3.08,-11.9 -3.05,-20.95 0.03,-7.18 1.22,-17.73 -0.82,-23.17l-2.13 -9.88c-0.31,-7.21 -2.1,-3.91 -2.94,-10.05 -0.45,-3.24 0.38,-2.06 -0.8,-5.21l-2.55 -9.45c-0.69,-2.9 -1.44,-2.74 -1.97,-4.02 -1.12,-2.69 -0.32,-2.26 -1.12,-4.89l-2.01 -3.98c-0.94,-2.52 -0.27,-2.61 -0.97,-5.03 -1.09,-3.72 -0.81,-0.88 -2.02,-3.98l-2.51 -7.49c-0.1,-0.21 -0.25,-0.45 -0.35,-0.66l-3.88 -9.11c-0.09,-0.23 -0.17,-0.51 -0.27,-0.74l-2.97 -6.03c-0.09,-0.23 -0.17,-0.51 -0.26,-0.73l-8.09 -14.91c-0.49,-1.06 -0.34,-0.98 -0.9,-2.11l-15.07 -21.92c-0.19,-0.22 -0.74,-0.86 -0.92,-1.08 -0.85,-1 -0.72,-0.86 -1.37,-1.64l-14.43 -16.56c-0.21,-0.2 -0.8,-0.79 -1.01,-0.99 -1.44,-1.33 -0.63,-0.57 -1.62,-1.39l-25.66 -20.33c-0.6,-0.48 -1.02,-0.88 -1.65,-1.35l-4.45 -2.56c-0.19,-0.1 -0.45,-0.24 -0.65,-0.35l-15.82 -9.17c-1.79,-0.97 0.22,-0.02 -1.91,-1.1l-8.34 -3.66c-1.01,-0.41 -1.29,-0.41 -2.19,-0.8l-15.7 -6.3c-2.13,-0.75 -1.17,-0.93 -4.13,-1.88l-15.75 -5.25c-3.17,-1.41 -5.04,-0.85 -8.16,-1.84 -9.86,-3.11 -4.81,-1.71 -15.6,-2.39 -4.78,-0.3 -2.65,-0.46 -4.83,-1.17l-5.02 -0.99c-12.72,-1.52 -85.91,-2.49 -96.23,1 -2.71,0.93 1.28,0.54 -3.91,1.09 -6.2,0.67 -7.05,-0.25 -12.84,2.17l-35.02 11.97c-2.24,1.16 -4.25,2.2 -6.7,3.3l-6.72 3.29c-0.21,0.1 -0.48,0.2 -0.7,0.29 -0.21,0.1 -0.49,0.2 -0.7,0.3 -1.53,0.72 -0.54,0.19 -2.01,1l-19.99 13c-0.8,0.58 -0.85,0.6 -1.77,1.23 -9.43,6.44 -8.42,8.03 -12.52,8.48l0 3c-6.89,0.57 -21.34,20.11 -27.59,26.41 -4.9,4.93 -8.95,11.26 -13.14,16.87 -1.98,2.65 -3.6,5.75 -6.27,6.72 -0.44,-0.64 -0.92,-1.56 -1.48,-2.52l-3.12 -4.89c-0.11,-0.18 -0.25,-0.44 -0.36,-0.64l-16.9 -27.09c-0.13,-0.16 -0.32,-0.39 -0.46,-0.55 -0.13,-0.15 -0.32,-0.38 -0.46,-0.54l-9.47 -11.53c-1.56,-1.53 -2.51,-2.41 -3.98,-4.02l-8.49 -7.51c-0.17,-0.12 -0.41,-0.28 -0.58,-0.41l-4.84 -4.17c-0.16,-0.13 -0.38,-0.32 -0.54,-0.45l-2.18 -1.83c-0.16,-0.13 -0.38,-0.32 -0.54,-0.46 -1.92,-1.64 -2.9,-2.53 -5.14,-3.86 -2.81,-1.66 -2.2,-1.07 -4.9,-3.09 -2.18,-1.63 -2.79,-2.13 -4.73,-3.28l-23.73 -12.26c-5.08,-1.79 -8.84,-4.39 -14.23,-5.77l-18.08 -5.92c-2.67,-0.46 -5.2,-0.02 -7.83,-0.18 -6.61,-0.39 -8.16,-3.03 -21.96,-3.03 -12.75,0 -46.95,-1.64 -57.86,1.15 -10.96,2.79 -12.53,1.34 -16.28,2.72 -3.59,1.31 -1.12,1.06 -5.02,1.97l-33.14 12.86c-0.21,0.1 -0.45,0.25 -0.65,0.35l-6.75 3.26c-0.02,0 -1.4,0.79 -1.94,1.06 -1.27,0.64 -1.48,0.61 -2.71,1.29 -1.22,0.67 -1.55,0.99 -1.83,1.16l-8.24 4.76c-0.37,0.26 -0.8,0.58 -1.16,0.84l-10.99 9.01c-1.36,1.15 -0.39,0.39 -1.74,1.27l-16 16c-0.19,0.22 -0.73,0.85 -0.92,1.07 -0.13,0.16 -0.32,0.39 -0.46,0.54 -0.13,0.16 -0.32,0.39 -0.46,0.55l-5.38 7.62c-0.6,1.02 -1.97,2.93 -2.48,3.51 -1.33,1.51 0.67,-0.25 -1.49,1.51 -1.55,1.26 -0.4,0.74 -2.5,1.5z"/>
   <path class="fil1" d="M1070.99 373c0,13.65 -1.38,55.71 0.42,67.58l0.53 14.46c0.38,5.58 2.01,3.95 2.04,12.97 0.01,4.07 0.58,5.74 0.89,9.11l1.79 8.21c1.35,5.62 0.02,11.12 1.93,17.06 1.43,4.42 1.6,11.92 3.28,16.72l3.78 16.23c0.94,4.01 0.52,6.38 2.03,9.96l1.37 6.63c0.59,5.6 1.63,3.83 2.6,7.4 0.96,3.53 0.04,3.78 1.52,7.49 0.91,2.29 0.79,1.07 1.47,3.52l4.4 15.6c0.88,2.05 0.77,0.84 1.62,3.39l7.86 22.13c0.1,0.2 0.27,0.43 0.37,0.63l6 14c0.11,0.21 0.24,0.46 0.34,0.67l9.16 18.84c0.1,0.21 0.21,0.48 0.3,0.69 0.49,1.03 0.38,1.01 0.91,2.1l9.33 17.66c0.81,1.46 0.23,0.37 1.12,1.88l7.52 12.49c0.11,0.19 0.23,0.46 0.34,0.66 0.58,1.01 0.46,0.84 1.19,1.81l4.15 5.84c0.11,0.21 0.22,0.48 0.33,0.68l5.67 8.33c1.75,3.39 4.15,5.34 6.7,8.29l22.94 28.06c0.74,0.74 0.75,0.71 1.52,1.49 0.15,0.14 0.35,0.35 0.5,0.5 0.14,0.15 0.35,0.36 0.49,0.51l26.99 25.01c0.15,0.14 0.36,0.34 0.52,0.48l39.73 30.27c0.19,0.11 0.46,0.23 0.66,0.33 1.01,0.52 0.92,0.32 2.09,0.92l10.5 6.5c0.24,0.12 0.55,0.39 1.93,1.07l6.69 3.3c0.28,0.14 1.11,0.48 1.39,0.62l15.48 7.51c3.45,1.58 0.16,0.35 3.73,1.27 1.21,0.31 6.09,3.24 10.88,2.13 0,-2.46 0.19,-5.71 0.05,-8.05 -0.3,-4.81 -4.66,-14.46 -6.17,-19.84 -1.04,-3.71 -0.93,-1.77 -2.21,-5.78l-13.49 -36.51c-0.87,-2.06 -0.03,0.1 -0.88,-2.12l-27.67 -68.34c-0.77,-2.61 -1.92,-2.8 -2.59,-6.41l-2.33 -6.66c-1.24,-3.04 -0.27,-3.62 -1.19,-6.81 -1.37,-4.7 -1.78,-0.74 -2.46,-6.55 -1.07,-9.2 -2.07,-5.3 -2.96,-10.04 -0.25,-1.37 -0.07,-3.45 -0.09,-4.9 -0.11,-9.22 -3.1,-4.37 -3.07,-13.93 0,-2.74 0.4,-6.21 -0.17,-8.83 -0.79,-3.64 -2.77,-3.56 -2.77,-6.23l0 -81c0,-2.93 2.22,-2.34 2.92,-7.08 0.89,-6.08 -1.32,-9.18 1.52,-14.47 2.58,-4.78 0.66,-4.24 1.87,-9.14l2.72 -8.27c0.85,-4.7 0.06,-1.21 1.64,-4.37l1.35 -3.64c0.52,-1.68 -0.13,-0.25 0.73,-2.28l12.42 -26.58c0.11,-0.18 0.29,-0.41 0.4,-0.59l5.99 -11.01c3.39,-6.08 10.97,-17.96 15.35,-22.66 2.87,-3.08 3.55,-6.1 8.99,-12l33.19 -35.82c0.14,-0.15 0.34,-0.36 0.49,-0.51 0.14,-0.14 0.35,-0.36 0.49,-0.51l29.3 -23.69c0.16,-0.14 0.37,-0.34 0.52,-0.48l13.66 -10.34c0.18,-0.12 0.42,-0.29 0.6,-0.41 0.18,-0.12 0.43,-0.27 0.61,-0.38l25.07 -15.93c1.57,-0.94 1.33,-0.72 3.03,-1.97l9.31 -5.69c0.19,-0.12 0.43,-0.28 0.61,-0.39 0.19,-0.12 0.44,-0.26 0.63,-0.37l32.2 -17.81c0.21,-0.1 0.48,-0.21 0.69,-0.31 1.03,-0.49 1,-0.38 2.08,-0.92l12.72 -6.28c1.62,-0.75 0.16,-0.1 1.99,-1.01l16.27 -7.73c0.2,-0.1 0.44,-0.25 0.64,-0.35l1.3 -0.71c1.69,-0.86 2.36,-1.13 4.05,-1.94l96.26 -39.75c1.34,-0.52 1.21,-0.33 2.28,-0.71l31.17 -12.84c2.15,-0.95 -0.42,0.08 1.92,-1.07l3.51 -1.5c4.08,-2.46 4.76,-13.49 -3.49,-13.49l-11 0c-6.36,0 -2.42,2.21 -8.03,2.97 -5.06,0.69 -5.34,-1.14 -9.83,1.18 -3.84,1.98 1.62,0.6 -3.32,1.67 -1.91,0.42 -3.89,0 -5.8,0.2 -6.88,0.72 -1.17,2.24 -8.04,2.96 -5.26,0.56 -4.9,-0.64 -9.28,1.73 -2.15,1.15 -6.45,0.84 -9.59,1.41 -5.81,1.05 -0.42,2.49 -8.1,2.89 -9.9,0.52 -4.98,0.42 -8.76,2.24 -3.52,1.69 -6.25,0.01 -9.96,1.05 -4.77,1.34 0.02,2.5 -8.27,2.72 -4.32,0.11 -5.74,1.02 -8.72,2.29 -3.64,1.54 -6.13,-0.13 -9.74,1.26 -4.86,1.86 0.48,2.38 -8.56,2.43 -9.05,0.05 -3.7,0.55 -8.57,2.43 -3.49,1.35 -6.38,-0.21 -9.87,1.14 -5.14,1.98 -1.56,2.11 -9.57,2.43 -6.1,0.25 -4.72,1.81 -8.29,2.71 -4.12,1.04 -5.77,-0.62 -9.86,1.14 -5.19,2.23 -1.01,1.9 -8.87,2.13 -8.29,0.23 -3.5,1.38 -8.28,2.72 -3.95,1.1 -5.71,-0.62 -9.85,1.15 -5.19,2.23 -1.01,1.9 -8.87,2.13 -8.29,0.23 -3.5,1.37 -8.27,2.72 -3.33,0.95 -6.66,-0.39 -10.17,0.84 -4.52,1.57 -1.23,2.28 -8.54,2.46 -8.54,0.21 -3.49,0.24 -8.71,2.28 -3.86,1.5 -6.18,0.04 -9.99,1.01 -3.57,0.91 -2.18,2.45 -8.29,2.71 -7.44,0.33 -4.3,-0.14 -9.28,1.73 -3.6,1.35 -5.29,0.83 -9.67,1.32 -5.04,0.56 -1.31,0.12 -3.95,1.06l-70.42 13.58c-6.01,1.3 -2.71,1.93 -8.67,2.32 -4.22,0.27 -6.57,0.09 -9.92,1.08 -4.37,1.29 -2.7,1.73 -9.07,1.94 -8.63,0.28 -9.3,2.65 -19.01,2.98 -2.68,0.09 -2.08,-0.05 -4.48,0.52 -3.01,0.72 -3.07,1.2 -4.35,1.66 -4.75,1.68 -8.67,0.12 -13.91,2.08 -4.83,1.81 -9.51,0.99 -14.09,2.91l-9.95 2.06c-4.46,0.73 -3.44,2.03 -8.31,2.68l-17.53 5.48c-0.24,0.08 -0.51,0.16 -0.76,0.23 -1.27,0.39 -1.42,0.23 -2.47,0.53l-1.54 0.47c-0.22,0.08 -0.47,0.22 -0.68,0.32 -2.42,1.11 0.52,0.01 -1.88,1.11 -0.22,0.1 -0.46,0.23 -0.68,0.32l-10.9 4.11c-7.71,3.37 -20.07,10.4 -26.08,15.92 -0.15,0.13 -0.36,0.35 -0.51,0.49 -0.15,0.14 -0.36,0.35 -0.51,0.49l-14.42 14.57c-3.85,5.01 -5.39,9.4 -7.32,15.68l-1.08 2.93c-1.54,5.43 -1.56,9.89 -1.56,16.43z"/>
   <path class="fil0" d="M1106.99 659l0 331c0,7.1 4.39,13.39 10.15,16.85 1.95,1.18 3.52,3.15 5.85,3.15l122 0c3.02,0 2.36,-1.71 5.37,-2.63 3.97,-1.22 2.88,0.96 5.95,-2.04 2.7,-2.64 4.67,-8.16 4.67,-12.33l0 -164c0,-3.75 -5.05,-5.37 -7.71,-7.28l-8.87 -6.13c-0.96,-0.64 -2.06,-1.24 -3.12,-1.89l-3.6 -2.39c-0.17,-0.13 -0.4,-0.31 -0.56,-0.44l-30.82 -25.19c-0.82,-0.68 -0.83,-0.66 -1.65,-1.35l-3.59 -3.41c-9.1,-9.16 -17.8,-18.06 -25.77,-28.22l-27.04 -34.96c-0.67,-1.04 -0.57,-0.96 -1.16,-1.84l-26.28 -42.72c-0.72,-1.2 -0.31,-0.53 -1.13,-1.87 -0.11,-0.19 -0.28,-0.43 -0.39,-0.62 -0.11,-0.18 -0.27,-0.43 -0.38,-0.61l-3.38 -5.63c-0.11,-0.19 -0.25,-0.44 -0.36,-0.63l-2.87 -5.14c-1.7,-3.5 1.33,-1.01 -2.31,-3.68 -1.56,1.04 -3,1.33 -3,4z"/>
   <path class="fil1" d="M1169.99 17c0,7.93 1.51,29.94 -1.05,35.95l-1.35 2.65c-0.1,0.22 -0.21,0.49 -0.3,0.7l-10.15 14.86c-1.97,2.33 -3.31,4.52 -5.17,6.82l-8.07 8.94c-0.62,0.62 -0.72,0.72 -1.5,1.5 -0.74,0.74 -0.92,0.92 -1.5,1.5l-8.99 9c-0.96,1.07 -1.7,2.08 -2.65,3.35 -0.82,1.08 -1.41,1.86 -2.13,2.87l-12.61 17.39c-1.28,2.22 -0.96,2.21 -1.94,4.06 -0.11,0.2 -0.25,0.45 -0.36,0.65l-8.86 18.13c-2.09,5.21 -1.5,5.26 -2.58,10.42 -0.71,3.4 -2.79,4.2 -2.79,9.21 0,10.96 -1.9,37.3 1.8,46.19l6.62 15.39c0.11,0.18 0.26,0.44 0.37,0.62l33.34 31.67 28.23 9.77c6.34,1.65 16.42,1.66 22.97,0.7l17.87 -4.14c2.17,-0.95 -0.11,-0.03 2.1,-0.9 2.6,-1.02 1.8,-0.56 4.27,-1.73l20.9 -12.09c0.16,-0.14 0.39,-0.33 0.54,-0.46 0.16,-0.14 0.38,-0.33 0.53,-0.47l13.24 -13.77c0.96,-1.06 1.59,-1.48 2.46,-2.53 2.2,-2.66 0.54,-0.63 1.95,-3.06l0.72 -1.28c0.83,-1.33 0.21,-0.35 1.23,-1.77 0.87,-1.23 1.59,-2.09 2.43,-3.56l4.78 -10.23c0.68,-1.99 0.08,-0.37 0.89,-2.1 0.12,-0.26 0.38,-0.2 1.04,-1.97 1.25,-3.41 0.47,-5.62 2.84,-12.16 1.86,-5.11 1.84,-51.73 -0.31,-56.94 -1.58,-3.86 -1.52,-8.05 -3.35,-11.65l-19.07 -40.93c-3.38,-5.93 2.72,5.07 -0.67,-1.32l-4.65 -8.36c-0.12,-0.17 -0.29,-0.41 -0.42,-0.58 -0.12,-0.17 -0.31,-0.4 -0.44,-0.56l-15.83 -22.17c-4.74,-5.28 -7.43,-10.59 -13.97,-17.03 -6.63,-6.52 -12.22,-13.73 -19.4,-19.59l-13.92 -13.08c-3.22,-3.02 -5.56,-4.91 -10.09,-4.91 0,7.77 0.13,6.03 2.36,12.64 0.77,2.31 0.64,1.44 0.64,4.36z"/>
  </g>
 </g>
</svg>
