<?xml version="1.0" encoding="UTF-8"?>
<!DOCTYPE svg PUBLIC "-//W3C//DTD SVG 1.1//EN" "http://www.w3.org/Graphics/SVG/1.1/DTD/svg11.dtd">
<!-- Creator: CorelDRAW 2020 (64-Bit) -->
<svg xmlns="http://www.w3.org/2000/svg" xml:space="preserve" width="2035px" height="1386px" version="1.1" style="shape-rendering:geometricPrecision; text-rendering:geometricPrecision; image-rendering:optimizeQuality; fill-rule:evenodd; clip-rule:evenodd"
viewBox="0 0 2035 1386"
 xmlns:xlink="http://www.w3.org/1999/xlink"
 xmlns:xodm="http://www.corel.com/coreldraw/odm/2003">
 <defs>
  <style type="text/css">
   <![CDATA[
    .fil3 {fill:#0198DA}
    .fil1 {fill:#0299DA}
    .fil0 {fill:#373435}
    .fil2 {fill:#3A3637}
    .fil4 {fill:#F7F7F7}
    .fil6 {fill:#FBFBFB}
    .fil5 {fill:#FDFDFD}
   ]]>
  </style>
 </defs>
 <g id="Layer_x0020_1">
  <metadata id="CorelCorpID_0Corel-Layer"/>
  <g id="_2682321519600">
   <path class="fil0" d="M1713.24 534.66c33.71,-3.77 69.1,3.51 96.95,20.86 40.55,25.26 68.5,68.74 73.62,126.36 8.74,98.31 -48.31,173.22 -135.19,182.64 -90.17,9.78 -164.92,-50.03 -172.34,-146.83 -7.6,-99.05 48.94,-173.18 136.96,-183.03zm205.89 -167.76c-13.87,20.21 -37.25,46.25 -52.41,66.73 -9.25,-3.85 -17.34,-12.18 -42.88,-20.76 -3.86,-1.29 -13.1,-3.44 -15.76,-4.97 -3.86,-4.22 -10.48,-2.31 -15.15,-4.12l-1.39 -0.61c-0.18,-0.07 -2.19,-0.72 -2.26,-0.74 -4.37,-1.05 -9.61,0.13 -13.99,-1 -15.48,-4.02 -71.2,-3.79 -81.11,-1.17 -2.7,0.72 -1.16,0.71 -3.69,1.32 -6.88,1.64 -12.57,-0.53 -19.65,2.35 -2.58,1.05 -8.28,0.67 -11.49,1.51l-4.21 1.79c-0.24,0.08 -0.48,0.19 -0.74,0.26l-7.18 0.81c-7.03,1.76 0.45,1.51 -7.41,2.6 -5.5,0.76 -13.54,4.08 -19.13,5.87l-4.95 2.05c-0.92,0.44 0.59,0.02 -2.14,0.86 -2.41,0.74 -1.34,-0.04 -3.95,1.05l-34.5 16.5c-0.18,0.11 -0.42,0.28 -0.6,0.4l-57.14 41.85c-0.15,0.15 -0.36,0.36 -0.5,0.5l-11 11c-0.15,0.15 -0.36,0.36 -0.5,0.5l-3.02 2.99c-0.15,0.14 -0.36,0.35 -0.5,0.5 -4.46,4.59 -7.66,10.42 -11.98,15.02l-4.54 5.46c-1.04,1.43 -1.06,1.48 -2.01,2.99l-6.74 10.26c-0.11,0.18 -0.27,0.43 -0.39,0.61l-4.87 7.13c-0.11,0.19 -0.25,0.45 -0.36,0.63 -0.12,0.19 -0.26,0.45 -0.37,0.64 -0.11,0.18 -0.26,0.44 -0.37,0.63l-1.5 2.49c-0.11,0.21 -0.24,0.47 -0.34,0.67l-1.21 2.79c-0.45,0.92 -0.77,1.41 -1.06,1.94l-5.31 9.69c-0.13,0.27 -0.59,1 -0.73,1.27 -0.84,1.68 -0.21,0.16 -0.93,2.06l-2.73 6.27c-0.11,0.21 -0.22,0.48 -0.32,0.68l-12.39 32.62c-1.02,4.38 -2.08,3.4 -2.77,7.23 -0.36,2.01 0.05,2.3 -0.57,4.43l-1.65 3.34c-0.62,1.5 -0.74,1.75 -0.89,4.11 -0.1,1.53 0.12,3.52 -0.08,4.93 -0.89,6.47 -2.75,2.86 -2.93,12.07 -0.16,8.03 -3.2,7.07 -3.04,16.96 0.12,7.2 -1.89,9.59 -2.76,16.24 -0.72,5.46 -0.23,13.96 -0.23,19.77 0,8.85 -1.66,45.92 1.28,53.73 2.89,7.69 0.5,16.31 2.78,22.22 1.15,2.99 1.91,4.22 1.96,8.03 0.1,6.59 -0.42,3.69 1.78,8.22 2.24,4.62 0.66,3.51 1.22,8.79 0.68,6.42 1.67,1.41 2.82,7.17 1.98,9.86 2.31,6.57 3.09,11.92 0.36,2.55 -0.28,1.77 0.66,4.33 1.21,3.29 0.46,-0.16 1.79,3.21 0.88,2.23 0.32,1.89 0.94,4.06 0.07,0.26 0.13,0.54 0.22,0.78 0.08,0.24 0.19,0.5 0.28,0.72 0.89,2.14 0.98,1.67 1.1,1.91l0.63 1.36c0.54,1.45 0.25,1.1 0.59,2.41 0.97,3.73 -0.31,0.19 1.27,3.73l4.47 10.53c0.09,0.24 0.15,0.53 0.24,0.76 0.09,0.23 0.17,0.51 0.27,0.74 0.09,0.22 0.2,0.48 0.3,0.69l26.12 45.89c1.78,2.91 -0.56,0 2.09,2.9 0.14,0.16 0.36,0.36 0.5,0.5l4.03 4.98c1.51,2.81 1.84,3.77 3.97,6.03l2.01 1.98c0.15,0.15 0.36,0.36 0.5,0.5l4.52 4.48c0.55,0.55 2.16,2.23 2.45,2.56 0.13,0.15 0.32,0.38 0.45,0.54l7.25 7.75c0.15,0.14 0.36,0.35 0.5,0.5l1.99 2.01c0.15,0.14 0.36,0.35 0.51,0.49l7.84 7.16c0.69,0.7 0.99,1 1.49,1.51 3.74,3.79 7.9,5.6 11.95,9.05 7.06,6.03 15.03,11.29 23.21,15.79l6.09 3.91c2.1,1.28 4.37,2.25 6.68,3.32l27.72 12.28c3.03,1.18 4.58,1.57 7.29,2.71 2.52,1.05 4.75,1.4 7.58,2.43l15.57 4.42c6.46,0.76 3.49,1.06 7.54,2.46 4.39,1.52 8.34,0 12.82,2.18 3.39,1.66 9.42,0.52 13.35,1.66 7.48,2.16 -3.64,2.1 17.37,2.62 8.32,0.21 3.21,5.29 36.92,2.9 35.89,0.86 59.31,2.07 90.33,14.85 24.85,10.23 46.61,27.83 58.11,46.9 29.47,48.9 17.47,115.21 -27.94,151.94 -49.75,40.23 -142.89,45.44 -203.64,6.64 -12.41,-7.93 -19.32,-14.27 -28.89,-24.09 -19.27,-19.77 -27.93,-48.82 -29.24,-76.79l-145.32 -0.16c-0.25,18.84 2.05,35.1 4.83,52.89 -0.26,2.83 -0.61,6.06 -0.17,8.92l4.72 14.29c1.19,2.6 0.44,-0.24 1.15,3.85 0.54,3.06 -0.36,1.17 0.86,4.14 1.42,3.45 0.58,0.54 1.46,2.55l19.01 42.99c3.08,6.02 7.48,11.2 10.97,17.02 0.12,0.19 0.25,0.45 0.36,0.64l8.72 11.28c0.62,0.81 1.07,1.63 1.6,2.41l8.99 11c0.15,0.14 0.36,0.35 0.51,0.5 0.14,0.14 0.35,0.35 0.5,0.49 0.14,0.15 0.35,0.36 0.5,0.51 0.15,0.14 0.35,0.35 0.5,0.49 0.94,0.94 1.39,1.39 2.5,2.51 1.12,1.11 1.55,1.55 2.5,2.49l6 6.01c0.14,0.14 0.35,0.36 0.49,0.5l35.13 27.88c1.38,0.83 1.26,0.63 2.56,1.44l15.34 9.65c0.19,0.12 0.43,0.28 0.61,0.39l15 8c0.2,0.11 0.44,0.26 0.64,0.37 0.19,0.1 0.43,0.27 0.62,0.37l3.39 1.61c0.22,0.1 0.49,0.21 0.7,0.3l9.45 3.55c0.06,0.03 1.13,0.77 1.86,1.14 7.07,3.63 10.75,3.66 13.72,5.29 1.74,0.95 0.38,0.67 2.77,1.22l11.7 3.3c0.3,0.06 0.58,0.07 0.86,0.14 2.83,0.75 2.19,1.93 5.4,2.6 3.82,0.8 4.95,0.16 8.14,1.87 3.4,1.82 8.7,0.47 11.95,2.04 2.1,1.01 -0.92,0.66 3.08,1.92 2.64,0.84 5.66,-0.06 8.38,0.63 3.27,0.82 2,2.24 7.28,2.71 2.91,0.26 7.14,-0.4 9.9,0.1 4.2,0.75 2.33,2.08 7.19,2.81 9.88,1.5 61.57,0.05 75.92,0.08 2.81,0.01 6.25,0.18 8.98,-0.02 2.35,-0.17 2.77,-0.29 4.28,-0.73 3.34,-0.97 2.07,-0.91 3.55,-1.44 4.7,-1.68 12.46,-0.74 18.25,-0.75 7.74,-0.02 7.92,-3.18 15.95,-3.05 9.28,0.14 5.32,-2.55 11.95,-3.05 11.91,-0.9 5.88,-1.08 11.38,-2.62 3.14,-0.88 5.45,-0.51 8.13,-1.87l14.23 -4.78c2.31,-0.6 -0.1,0.25 2.9,-1.09l16.64 -7.36c0.29,-0.12 1.17,-0.42 1.46,-0.54l10.92 -5.08c0.21,-0.1 0.48,-0.22 0.69,-0.31l1.4 -0.6c1.52,-0.72 0.54,-0.19 1.99,-1.01 0.27,-0.15 0.98,-0.62 1.23,-0.77l17.14 -9.86c0.2,-0.11 0.46,-0.23 0.66,-0.34 0.2,-0.11 0.47,-0.23 0.67,-0.33l37.51 -27.49c1.26,-1.26 1.06,-1.08 2.56,-2.44l16.62 -16.39c0.97,-0.96 1.34,-1.29 2.52,-2.48 3.41,-3.45 5.74,-7.07 8.26,-10.73l21.13 -31.87c0.1,-0.21 0.21,-0.48 0.31,-0.69l4.37 -8.63c0.14,-0.27 0.57,-1.02 0.71,-1.29l17.19 -47.81c1.93,-3.9 0.42,-9.19 2.42,-13.58 1.71,-3.77 2.08,-4.91 2.01,-9.99 -0.09,-6.66 1.97,-11.3 2.12,-11.88 2.39,-9.19 0.98,-67.83 -0.03,-71.23l-1.7 -4.3c-1.12,-4.09 0.26,-7.92 -0.99,-12 -1.65,-5.34 -1.86,-1.05 -2.41,-7.6l-9.34 -29.65c-0.1,-0.23 -0.19,-0.5 -0.29,-0.71 -0.45,-1 -0.86,-1.59 -1.05,-1.96l-6.13 -12.87c-2.48,-4.14 -5.27,-13.46 -10.19,-14.84 -2.46,-1.98 -6.55,-8.69 -9.17,-11.81l-9.85 -11.12c-13.72,-15.05 -27.51,-25.54 -45.08,-36.94 -4.55,-2.95 -23.65,-12.95 -25.65,-15.1 2.12,-1.63 19.98,-10.53 30.1,-17.65l20.2 -15.83c3.01,-2.55 3.16,-4.28 6.45,-5.99 3.35,-0.12 6.91,-5.11 9.07,-7.46 0.14,-0.15 0.34,-0.37 0.48,-0.53l0.92 -1.07c0.14,-0.16 0.33,-0.38 0.46,-0.54l10.07 -12.93c0.06,-0.08 1.58,-2.1 1.71,-2.29 1.05,-1.59 0.98,-1.79 1.87,-3.13l2.19 -2.81c0.13,-0.16 0.33,-0.38 0.46,-0.54l6.7 -11.31c0.63,-1.02 0.48,-0.78 1.16,-1.83l13.54 -28.47c0.34,-0.79 1.07,-1.88 1.08,-1.91l5.54 -15.46c3.96,-8.51 -0.48,-4.02 3.46,-11.54 2.21,-4.24 0.78,-3.63 1.45,-7.55 0.71,-4.18 1.73,-2.3 2.61,-6.4 0.61,-2.86 -0.15,-5.57 0.53,-8.46 0.48,-2.02 1.96,-3.49 2.5,-6.51 0.98,-5.51 -0.77,-12.13 0.53,-17.46 3.74,-15.37 2.67,-16.3 2.67,-33.33 0,-5.81 0.39,-12 -0.42,-17.58 -0.38,-2.65 -0.32,-5.8 -0.74,-8.24 -0.89,-5.17 -1.71,-0.7 -1.84,-7.65 -0.11,-0.31 -4.76,-31.41 -7.83,-42.68 -3.71,-13.66 -7.85,-25.59 -13.3,-37.7 -8.86,-19.68 -25.05,-46.77 -39.86,-60.98 2.22,-5.24 27.58,-36.33 33.03,-43.12l32.56 -41.84c-8.37,-7.14 -17.7,-13.49 -26.56,-20.26 -9.28,-7.07 -16.82,-12.79 -26.12,-19.86 -9.11,-6.93 -17.67,-13.19 -26.83,-20.18l-25.62 -19.91 -5.47 0c-2.13,3.19 -2.33,2.02 -3.68,6z"/>
   <path class="fil0" d="M220.26 434.9l-15.88 11.55c-15.86,12.48 -23.82,22.48 -33.98,39l-2.92 3.68 -3.13 -21.23c0.7,-3.9 0.5,-7.96 0.51,-12.04 0.03,-13.75 -3.32,-2.79 -3.03,-20.98 0.03,-1.55 0.11,-4.43 -0.13,-5.86 -0.61,-3.5 -0.5,-1.32 -1.67,-4.34 -3.32,-8.51 3.56,-7.8 -16.22,-7.78l-123 0c-2.43,10.44 -1,127.11 -1,148l0 375c0,16.71 -1.85,61.75 1,74l144.03 0.03c3.08,-0.64 1.97,0.66 2.8,-2.03l0 -299c0,-33.34 1.06,-57.43 12.88,-86.29 17.81,-43.53 56.28,-83.25 118.3,-80.84 32.87,1.27 52.92,13.07 71.02,28.12 12.49,10.38 31.23,38.48 36.94,62.01l0.03 1.17c11.92,19.82 8.55,123.77 8.55,153.83 0,53.99 0.19,108.01 -0.01,162l0.46 59.25 146.2 0.01c0,-97.76 0,-195.51 0,-293.26 0,-51.17 2.92,-81.67 27.89,-117.89 17.04,-24.72 47.19,-50.3 93.07,-52.74 49.18,-2.62 79.47,19.13 97.15,48.32 21.77,35.96 22.4,76.76 22.42,123.31 0.02,97.42 0,194.83 0,292.26l146.64 -0.01c0.09,-62.08 0,-124.17 -0.01,-186.25 -0.02,-59.66 2.49,-124.06 -2.29,-183 -0.19,-7.42 1.46,-23.74 -0.94,-30.13 -1.95,-5.23 -1.92,-0.96 -2.13,-8.87 -0.17,-6.39 -0.4,-3.71 -2.14,-7.86 -1.61,-3.86 -0.14,-5.07 -1.92,-9.08 -0.95,-2.15 -0.93,-0.71 -1.61,-3.39l-6.27 -20.72c-1.23,-6.18 1.04,3.75 -0.24,-1.77 -0.75,-3.27 -1.83,-3.29 -2.65,-6.34l-2.99 -8.01c-0.1,-0.23 -0.17,-0.51 -0.26,-0.74l-6.27 -13.74c-0.09,-0.23 -0.17,-0.51 -0.26,-0.73l-7.79 -14.22c-0.55,-1.13 -0.4,-1.05 -0.89,-2.1l-13.55 -20.46c-0.13,-0.16 -0.32,-0.38 -0.45,-0.55l-30 -31c-0.16,-0.13 -0.39,-0.32 -0.55,-0.45 -0.16,-0.13 -0.38,-0.33 -0.53,-0.46l-1.54 -1.47c-2.02,-1.89 -3.88,-3.3 -6.07,-4.93l-9.36 -6.64c-2.27,-1.67 -1.59,-1.07 -3.77,-2.22l-34.24 -17.77c-0.24,-0.09 -0.52,-0.15 -0.76,-0.24 -0.24,-0.08 -0.53,-0.14 -0.77,-0.23 -0.24,-0.08 -0.52,-0.15 -0.76,-0.24 -1.88,-0.74 -0.37,-0.13 -2.03,-0.97 -6.16,-3.1 -16.89,-5.97 -23.89,-8.11l-7.48 -2.51c-6.11,-0.93 -6.88,-3.11 -13.93,-3.08l-10.62 -1.38c-10.18,-3.01 -89.85,-2.31 -97.44,-0.62l-13.97 2.03c-5.68,0.47 -3.56,1.99 -8.16,2.84l-40.13 14.87c-1.13,0.49 -0.99,0.35 -2.1,0.89 -0.79,0.39 -1.65,0.93 -1.92,1.08l-20.76 12.25c-0.18,0.11 -0.43,0.27 -0.61,0.39l-3.45 2.54c-0.17,0.13 -0.41,0.31 -0.58,0.43l-2.96 2.03c-1.29,0.87 -1.62,1.07 -3,2.01l-6.08 4.92c-2.78,2.77 -1.73,-1.74 -2.19,3.75l-19.32 19.74c-2.02,2.57 -3.97,4.34 -6.02,6.97l-21.83 30.01c-3.16,-4.46 -9.83,-21.88 -19.81,-35.81 -12.3,-17.17 -18.44,-20.73 -26.01,-29.91 -0.65,-2.18 -0.23,-1.05 -1.52,-2.55l-3.22 -2.78c-0.16,-0.13 -0.39,-0.32 -0.55,-0.45l-1.09 -0.91c-0.16,-0.13 -0.38,-0.32 -0.54,-0.46 -5.76,-4.88 -15.02,-10.43 -21.73,-14.27l-20.73 -10.27c-0.2,-0.1 -0.44,-0.26 -0.64,-0.36l-20.04 -6.96c-11.35,-2.38 2.52,-1.86 -16.04,-2.96 -5.37,-0.32 -2.24,-1.08 -8.02,-1.98 -1.33,-0.21 -3.07,-0.3 -4.5,-0.5 -7.05,-0.99 -59.48,-0.95 -65.64,0.26l-6.95 2.04c-5.31,0.89 -5.96,-1.11 -12.36,1.65 -5.81,2.51 -4.04,0.92 -7.83,2.17l-11.29 4.71c-3.25,1.26 -5.61,0.99 -12.95,5.05l-10.07 4.93c-0.22,0.09 -0.5,0.18 -0.72,0.28l-7.19 5.36z"/>
   <path class="fil1" d="M1297.81 749.21c-9.15,-11.66 -29.49,-66.22 -34.48,-82.85 -24.84,-82.69 -23.1,-165.89 25.42,-238.5 4.18,-6.26 7.29,-11.03 11.92,-17.1 64.7,-84.82 172.84,-135.4 271.14,-171.86 14.31,-5.31 28.63,-11.44 43,-16.36 4.99,0.71 10.96,-2.81 15.65,-4.99 0.22,-0.1 0.49,-0.2 0.71,-0.3 3.96,-1.74 4.52,-0.56 4.82,-6.34 0.52,-10.33 -7.63,-8.25 -15.25,-8.08l-6.38 1.62c-4.02,2.19 -9.57,0.6 -14,3 -1.93,1.04 0.53,0.26 -1.94,1.06 -2.25,0.71 -3.32,0.25 -5.62,0.38 -6.4,0.36 -3.13,2.46 -13,2.99 -5.83,0.32 -3.79,2.12 -8.1,2.9 -1.86,0.34 -4.03,-0.06 -5.87,0.14 -7.05,0.74 -0.93,2.57 -9,2.99 -1.56,0.08 -3.37,-0.2 -4.89,0.11 -4.8,0.99 -1.84,1.15 -3.88,2.13 -3.64,1.76 -6.88,-0.16 -10.68,1.31 -5.04,1.96 0.62,2.23 -8.57,2.44 -5.23,0.12 -5.45,2.01 -9.17,2.82 -1.66,0.36 -3.18,0.08 -4.83,0.17 -7.92,0.44 0,2.27 -14.04,2.97 -7.56,0.38 -2.3,1.87 -8.08,2.92 -5.47,1 -4.88,-1.04 -10.17,1.83 -2.2,1.19 0.43,0.83 -3.72,1.28 -1.85,0.2 -3.96,-0.16 -5.89,0.11 -7.61,1.04 2.72,1.35 -13.07,2.93 -5.7,0.56 -0.55,-0.39 -4.45,1.55 -5.54,2.75 -4.85,0.5 -10.46,1.54 -5.8,1.07 -0.43,2.47 -8.1,2.9 -1.63,0.09 -3.23,-0.17 -4.89,0.1 -3.64,0.61 -1.23,0.46 -4.18,1.83 -4.58,2.11 -5.04,0.28 -9.83,1.17 -5.88,1.08 -0.38,2.75 -9.09,2.91l-9.08 1.92c-4.65,2.14 -5.98,0.16 -10.65,1.34 -3.57,0.91 -2.19,2.46 -8.29,2.71 -5.12,0.22 -5.39,0.59 -9.73,2.28 -4.1,1.6 -8.22,0.45 -13.55,2.45 -1.54,0.58 -3.48,1.01 -4.86,1.14l-32.9 6.09c-1.41,0.18 -1.17,0.05 -2.61,0.4l-48.91 10.09c-4.47,1.3 -10.08,0.47 -14.85,2.15 -4.97,1.76 -11.05,1.17 -15.51,2.49 -8.58,2.54 -11.82,0.92 -19.2,3.79 -4.69,1.82 -4.3,0.71 -9.77,1.23l-8.43 2.57c-4.19,0.96 -5.88,-0.26 -9.82,1.19l-9.74 2.26c-4.67,0.54 -4.58,2.04 -8.3,2.69 -7.34,1.29 -7.21,2.26 -12.66,3.34 -3.47,0.7 -1.32,0.23 -4.39,1.61l-9.4 3.61c-0.23,0.09 -0.49,0.18 -0.74,0.26l-28.49 14.51c-2.37,1.65 -4.36,2.35 -6.7,4.3 -1.19,1 -0.98,0.91 -1.55,1.45 -11.17,10.46 -17.34,15.78 -22.51,31.49 -4.45,13.5 -2.39,51.52 -2.39,65.61l0.96 32.04c-0.04,4.29 1.2,6.13 1.9,10.1l1.08 15.92c0.1,1.1 0.03,1.64 0.24,2.77 0.38,2.11 0.46,1.64 0.68,2.31 0.91,2.77 0.52,-1.45 1.12,3.89 0.51,4.6 0.1,9.65 1.17,13.82 1.23,4.84 1.16,0.6 1.8,6.2 0.22,1.91 0.04,3.62 0.3,5.71l2.42 8.58c0.86,3.8 0.22,6.31 1.33,9.66l4.33 15.67c1.39,4.04 0.53,5.78 2.8,11.2l2.05 8.95c1.17,2.94 0.81,0.7 1.66,4.34l5.58 17.43c0.08,0.23 0.18,0.5 0.26,0.74l11.08 29.91c0.1,0.21 0.24,0.45 0.34,0.67l33.92 64.07c5.17,6.23 8.26,13.87 14.04,19.97 4.13,4.35 6.34,9.27 10.53,13.46l56.55 55.45c1.37,0.98 2.23,1.45 3.59,2.42l1.7 1.3c0.61,0.51 0.92,0.84 1.57,1.42l30.58 20.43c0.2,0.11 0.47,0.22 0.67,0.32l1.35 0.65c0.21,0.1 0.46,0.24 0.66,0.34l14.42 7.58c0.21,0.1 0.48,0.22 0.69,0.31l21.23 8.72c2.22,0.58 2.02,0.21 4.4,-0.35 0,-3.24 0.46,-7.67 -0.29,-10.71 -0.59,-2.41 -0.67,-1.12 -1.79,-4.21l-3.01 -8.99c-0.65,-1.84 -0.56,-2.62 -1.23,-4.76 -0.8,-2.53 -0.7,-1.27 -1.76,-4.25l-12.52 -34.5c-1.6,-4.27 1.23,-1.37 -2.4,-3.27z"/>
   <path class="fil2" d="M1119.81 662.9l0 331c0,7.1 4.39,13.39 10.15,16.85 1.96,1.18 3.53,3.15 5.85,3.15l122 0c3.03,0 2.37,-1.71 5.37,-2.63 3.97,-1.22 2.89,0.96 5.96,-2.04 2.69,-2.64 4.67,-8.16 4.67,-12.33l0 -164c0,-3.75 -5.05,-5.37 -7.71,-7.28l-8.88 -6.13c-0.96,-0.64 -2.06,-1.24 -3.11,-1.89l-3.6 -2.39c-0.17,-0.13 -0.4,-0.31 -0.56,-0.44l-30.82 -25.19c-0.83,-0.68 -0.84,-0.66 -1.65,-1.35l-3.59 -3.41c-9.1,-9.16 -17.8,-18.06 -25.77,-28.22l-27.04 -34.96c-0.67,-1.04 -0.58,-0.96 -1.17,-1.84l-26.28 -42.72c-0.71,-1.2 -0.3,-0.53 -1.12,-1.87 -0.11,-0.19 -0.28,-0.43 -0.39,-0.62 -0.11,-0.18 -0.27,-0.43 -0.38,-0.61l-3.38 -5.63c-0.11,-0.19 -0.26,-0.44 -0.37,-0.63l-2.86 -5.14c-1.7,-3.5 1.33,-1.01 -2.32,-3.68 -1.55,1.04 -3,1.33 -3,4z"/>
   <path class="fil3" d="M1137.81 114.12c-5.28,0.83 -10.03,11.9 -12.41,16.37l-9.51 19.49c-2.22,5.06 -1.38,1.08 -2.09,7.91 -0.82,7.93 -0.69,0.26 -2.6,7.39 -1,3.71 -1.8,40.37 0.21,47.03l2.74 7.25c0.09,0.23 0.19,0.49 0.29,0.71l10.09 17.91c1.07,1.48 1.02,1.57 2,3l12.56 12.44c7.54,5.36 15.66,11.83 24.85,14.15 7.74,1.95 1.55,1.3 12.68,3.32 3.89,0.7 0.51,0.09 2.34,0.66 15.58,4.88 24.1,1.15 34.04,-0.66 4.72,-0.87 3.84,0.26 8.34,-1.67 0.21,-0.09 0.46,-0.23 0.67,-0.32l17.66 -8.35c0.17,-0.12 0.4,-0.29 0.58,-0.41 0.18,-0.12 0.42,-0.28 0.6,-0.4l1.25 -0.75c0.81,-0.45 1.1,-0.53 1.99,-1.01 2.32,-1.28 0.83,-0.26 3.04,-1.97l19.38 -19.62c7.19,-9.59 8.22,-14.25 11.91,-22.09 1.33,-2.83 0.81,-0.5 1.27,-3.73l1.61 -8.39c2.75,-6.23 2.06,-52.28 1.14,-56.1 -1.27,-5.25 -1.81,-1.93 -2.55,-7.46l-2.34 -7.66c-1.04,-2.51 -0.2,-0.6 -0.78,-3.21 -0.07,-0.3 -0.07,-0.58 -0.14,-0.87l-3.89 -10.11c-0.1,-0.21 -0.24,-0.45 -0.34,-0.66 -0.09,-0.21 -0.25,-0.45 -0.34,-0.65 -0.1,-0.21 -0.24,-0.46 -0.34,-0.67l-20.5 -36.5c-0.13,-0.17 -0.31,-0.4 -0.43,-0.57l-8.69 -13.31c-2.1,-3.08 -3.88,-6.3 -7.29,-7.33 -3.21,-2.35 -10.4,-11.99 -12.89,-14.51l-40.79 -37.61c2.98,12.37 6.52,19.99 5.91,34.76 -1.1,26.93 -14.1,37.87 -29.16,53.03l-20.07 21.17z"/>
   <path class="fil4" d="M415.81 1012.15l142.12 1.87c9.06,-0.07 5.88,-5.18 5.88,-23.12 0,-19.33 0.1,-38.68 -0.01,-58 -0.04,-9.37 1.01,-16.67 1.01,-27l0 -87c0,-19.87 1,-36.24 1,-56 0,-19.33 0.03,-38.67 0,-58l0.96 -34.04c0.4,-5.94 0.47,-2.17 1.47,-5.53 1.92,-6.42 0.77,-16.35 5.08,-26.92l8.91 -20.09c0.11,-0.19 0.3,-0.41 0.41,-0.59 0.12,-0.18 0.3,-0.4 0.42,-0.58l2.7 -4.31c0.11,-0.18 0.27,-0.43 0.39,-0.61l3.06 -4.93c0.52,-0.99 0.48,-1.15 0.99,-2.02 0.1,-0.19 0.24,-0.45 0.36,-0.63 4.12,-6.56 9.33,-12.67 14.84,-18.17l47.76 -30.23c2.89,-0.79 3.18,0.19 6,-1 3.63,-1.54 -1.38,-2.49 11.64,-2.36 10.59,0.11 18.63,-0.79 27.06,-0.05 5.38,0.47 11.55,-0.6 16.97,0.05 3.66,0.43 3.3,2.27 8.97,3.02 5.39,0.71 16.35,4.79 20.47,8.53 3.96,3.61 9.03,6.05 12.98,10.03l12.81 13.18c2,2.33 1.52,2.25 3.2,4.8 4.75,7.19 9.95,14.45 13.26,22.74l4.95 13.06c1.29,2.85 0.19,-1.39 1.13,2.86 0.59,2.64 -0.02,3.24 0.83,6.17 1.14,3.91 1.38,2.05 2.09,4.91 1.25,5.05 -0.52,10.62 1.04,15.96 3.75,12.87 2.25,2.56 2.25,23.75l-0.04 42.04c0.07,5.78 1.09,7.54 1.07,13.94 -0.04,9.34 -0.03,18.68 -0.03,28.02 0,10.75 0.88,17.95 0.97,28.04 0.04,5.67 1.06,6.91 1.07,12.93l-0.15 201.15c0.05,7.49 1.33,6.05 9.08,5.92l129.04 -0.04c16.61,0.1 11.99,0.72 11.99,-31 0,-21.66 -2,-30.54 -2,-55l0 -259c0,-4.27 0.3,-9.74 -0.14,-13.86 -0.45,-4.22 -0.5,-9.35 -2.79,-12.14 4.78,58.94 2.27,123.34 2.29,183 0.01,62.08 0.1,124.17 0.01,186.25l-146.64 0.01c0,-97.43 0.02,-194.84 0,-292.26 -0.02,-46.55 -0.65,-87.35 -22.42,-123.31 -17.68,-29.19 -47.97,-50.94 -97.15,-48.32 -45.88,2.44 -76.03,28.02 -93.07,52.74 -24.97,36.22 -27.89,66.72 -27.89,117.89 0,97.75 0,195.5 0,293.26l-146.2 -0.01z"/>
   <path class="fil5" d="M1736.81 862.9c-18.99,0 -10.7,-0.68 -19.13,-1.86l-17.91 -1.1 -31.35 -9.65c-0.2,-0.1 -0.46,-0.23 -0.66,-0.33l-1.34 -0.67c-0.27,-0.14 -1.07,-0.51 -1.35,-0.65 -0.2,-0.1 -0.46,-0.23 -0.66,-0.34l-9.91 -5.09c-0.21,-0.1 -0.48,-0.2 -0.7,-0.3 -6.15,-2.8 -18.57,-11.74 -23.58,-16.42 -0.15,-0.14 -0.36,-0.35 -0.51,-0.49l-3.98 -4.02c-0.94,-0.94 -1.39,-1.38 -2.5,-2.5l-5.51 -5.49c-0.14,-0.15 -0.36,-0.35 -0.5,-0.5 -0.21,-0.2 -0.81,-0.77 -1.02,-0.98l-14.55 -20.44c-1.04,-1.9 -1.95,-4.09 -2.96,-6.05l-10.43 -23.57c-4.11,-10.41 -1.49,-7.35 -3.18,-11.82 -1.88,-5 -2.06,0.04 -2.28,-7.71 -0.41,-13.94 -3.12,1.34 -2.98,-26.03 0.04,-7.45 -1.55,-12.35 -0.97,-18.92l1.08 -27.95c0.57,-3.3 2.03,-3.52 2.66,-7.34 0.53,-3.23 -0.26,-5.25 0.77,-8.24 1.38,-4.04 1.84,-1.08 2.42,-7.57 0.8,-8.95 0.25,-1.4 2.48,-7.52l5.09 -13.91c1.28,-2.62 2.26,-4.55 3.37,-6.64 0.52,-0.98 1.12,-2.11 1.77,-3.22l4.16 -7.84c5.46,-8.66 11.06,-16.62 18.24,-23.76 0.15,-0.15 0.36,-0.35 0.5,-0.5l1.51 -1.5c0.14,-0.14 0.35,-0.35 0.5,-0.5l4.49 -4.5c0.98,-0.97 1.37,-1.38 2.49,-2.51 0.33,-0.34 2.53,-2.42 2.56,-2.44 0.16,-0.13 0.4,-0.31 0.56,-0.44l21.04 -14.96c0.18,-0.12 0.41,-0.29 0.59,-0.41l16.66 -8.35c0.2,-0.1 0.46,-0.22 0.67,-0.32 11.32,-5.15 10.32,-3.07 14.14,-4.86 7.5,-3.5 2.32,0.35 14.9,-4.1 5.41,-1.91 13.47,-0.58 19.35,-0.65 10.31,-0.13 4.37,-1.17 17.01,-0.09 3,0.25 6.87,0.06 9.95,0.05 18,-0.03 9.99,-0.07 16.57,2.43 3.18,1.2 5.09,-0.02 8.1,0.91 3.94,1.21 1.01,0.91 3.12,1.87l12.58 4.43c1.09,0.46 1.48,0.78 1.97,1.03l15.92 8.08c1.47,0.94 3.91,3.33 5.67,4.32l28.68 24.32c1.4,1.49 1.07,0.91 2.39,2.61l19.73 29.28c0.13,0.28 0.45,1.13 0.58,1.41 0.1,0.21 0.22,0.48 0.32,0.68l2.73 6.27c0.73,1.89 0.12,0.38 0.96,2.05l1.8 4.19c0.09,0.24 0.15,0.53 0.24,0.76l6.81 20.2c1.85,3.75 0.56,-1.65 1.67,3.33 1.2,5.4 -0.64,6.7 1.96,12.03 2.8,5.73 1.05,21.68 1.93,28.07 1.27,9.25 -0.82,18.33 -0.71,27.75 0.14,12.51 -2.96,7.57 -3.06,15.94 -0.13,11.72 -1.77,5.33 -2.9,12.1 -1.02,6.18 -3.99,11.99 -5.97,18.03l-6.39 14.61c-0.1,0.21 -0.21,0.48 -0.31,0.69l-14.69 22.31c-1.74,2.16 -2.7,3.39 -4.42,5.58l-7.19 7.81c-0.14,0.14 -0.35,0.36 -0.49,0.5 -0.15,0.15 -0.35,0.36 -0.5,0.51l-26.01 19.99c-0.2,0.1 -0.46,0.23 -0.67,0.33 -0.21,0.1 -0.48,0.2 -0.7,0.3 -1.06,0.49 -0.94,0.32 -2.11,0.88 -1.65,0.81 -1.61,0.93 -3.16,1.85 -0.92,0.55 -2.47,1.39 -3.21,1.79 -9.85,5.23 -17.91,8.21 -28.7,10.3l-3.81 1.19c-0.22,0.08 -0.46,0.23 -0.69,0.31l-11.89 1.11c-3.33,0.36 -4.52,0.68 -9.18,0.82 -7.1,0.21 -4.73,2.03 -7.97,2.03zm-23.57 -328.24c-88.02,9.85 -144.56,83.98 -136.96,183.03 7.42,96.8 82.17,156.61 172.34,146.83 86.88,-9.42 143.93,-84.33 135.19,-182.64 -5.12,-57.62 -33.07,-101.1 -73.62,-126.36 -27.85,-17.35 -63.24,-24.63 -96.95,-20.86z"/>
   <path class="fil5" d="M1435.05 1170.9c-2.78,-17.79 -5.08,-34.05 -4.83,-52.89l145.32 0.16c1.31,27.97 9.97,57.02 29.24,76.79 9.57,9.82 16.48,16.16 28.89,24.09 60.75,38.8 153.89,33.59 203.64,-6.64 45.41,-36.73 57.41,-103.04 27.94,-151.94 -11.5,-19.07 -33.26,-36.67 -58.11,-46.9 -31.02,-12.78 -54.44,-13.99 -90.33,-14.85 0.2,0.16 0.53,0.11 0.63,0.43 1.38,4.34 25.81,2.72 28.41,2.71 11.04,-0.07 3.45,2.72 21.02,2.98 7.46,0.11 6.37,2.82 13.96,3.05 7.32,0.22 3.73,1.95 12.93,3.07 4.22,0.51 5.63,2.08 9.45,3.55 0.22,0.09 0.48,0.2 0.7,0.29 0.22,0.09 0.47,0.23 0.68,0.32 0.21,0.1 0.45,0.24 0.66,0.34 1.93,0.88 1.25,0.58 2.8,1.2 2.97,1.19 -1.37,-0.71 1.46,0.54l36.22 24.78c6.21,6.2 15.44,17.97 17.37,21.64 0.1,0.2 0.22,0.47 0.32,0.67 0.11,0.2 0.24,0.46 0.35,0.66l5.13 9.86c0.8,2.51 0.12,0.91 1.08,2.93 0.1,0.2 0.26,0.43 0.36,0.63 0.1,0.2 0.27,0.44 0.37,0.64 0.1,0.2 0.24,0.45 0.34,0.65l1.41 3.59c2.19,4.69 1.79,4.12 2.39,9.61 0.67,6.14 1.38,1.9 2.67,6.33 0.82,2.81 1.8,36.76 -1.16,42.26 -2.43,4.53 -0.92,6.54 -3.61,12.38l-15.78 33.22c-5.33,7.42 -10.64,14.25 -17.68,20.33 -5.19,4.49 -17.6,13.08 -23.95,16.05 -1.31,0.6 -2.25,1.2 -2.61,1.39l-27.86 10.14c-6.75,1.03 -1.9,2.23 -13.03,2.97l-9.05 2.95c-1.01,0.14 -3.79,0.07 -4.94,0.06l-58.66 -0.42c-3.8,-1.16 -4.64,-2.56 -9.39,-2.61 -7.53,-0.09 -6.74,-2.41 -13.01,-2.99 -8,-0.73 -2.28,0.03 -6.14,-1.85 -3.86,-1.88 -2.73,-0.41 -6.39,-1.61 -0.24,-0.08 -0.5,-0.19 -0.72,-0.29l-1.92 -1.08c-2.05,-1 -0.2,-0.26 -2.88,-1.11l-8.54 -3.47c-7.33,-3.53 -14.83,-7.77 -20.99,-13l-12.83 -10.18c-0.41,-0.37 -1.42,-1.42 -2,-2l-2.51 -2.49c-7.82,-7.97 -17.85,-23.75 -23.07,-33.93 -0.1,-0.2 -0.21,-0.47 -0.32,-0.67l-0.74 -1.27c-0.11,-0.19 -0.3,-0.41 -0.4,-0.59l-2.15 -6.85c-1.35,-3.59 -1.3,0.07 -2.34,-5.67 -0.99,-5.49 0.29,-1.71 -1.84,-6.16 -1.85,-3.88 -0.57,-9.83 -1.4,-14.59 -0.4,-2.24 -1.62,-3.99 -2.18,-5.82 -2.56,-8.4 1.48,-6.39 -18.62,-6.39 -13.93,0 -126.64,-1.38 -130.57,0.51 -4.51,2.17 -0.17,9.04 0.26,10.8 0.96,3.99 0.18,12.2 0.27,16.73 0.07,3.19 0.22,4.63 1.1,6.91 4.97,12.9 -1,16.15 5.18,20.05z"/>
   <path class="fil5" d="M1297.81 749.21c-0.09,-4.84 0.25,-2.5 -1.38,-5.95l-17.4 -40.57c-0.37,-0.85 -1,-2 -1,-2 -0.92,-2.02 -0.24,-0.11 -1.1,-2.91l-3.47 -9.53c-1.52,-3.87 -1.68,-1.77 -2.59,-6.4 -1.08,-5.45 -1.5,-3.16 -2.7,-7.3l-2.93 -9.08c-0.79,-2.44 -0.15,-3.46 -0.91,-6.09 -1.1,-3.8 -1.4,-1.53 -2.2,-4.8 -0.61,-2.46 0.01,-3.98 -0.64,-6.36 -1.17,-4.26 -1.63,-0.43 -2.57,-5.43 -1.29,-6.92 1.48,-5.17 -1.91,-12.09 -1.69,-3.47 -0.79,-9.37 -1.19,-13.81 -0.62,-6.91 -2.87,-2.82 -3.08,-10.92l0.01 -74.14c0.03,-8.56 3.19,-6.12 3.02,-17.98l1.09 -6.9c0.46,-0.9 -0.01,0.89 1.17,-1.83 1.16,-2.69 0.36,0.4 0.74,-3.26 0.68,-6.54 1.87,-5.65 2.88,-11.12l11.2 -28.81c0.1,-0.2 0.24,-0.45 0.34,-0.65 0.1,-0.21 0.22,-0.48 0.32,-0.68l8.37 -15.63c0.11,-0.19 0.27,-0.43 0.38,-0.62l4.83 -8.18c4.07,-5.58 6.89,-12.42 11.63,-17.36l24.51 -30.49c0.92,-0.92 1.07,-1.07 2,-2l26.48 -24.52c0.16,-0.14 0.36,-0.35 0.51,-0.49 0.22,-0.2 0.81,-0.79 1.02,-0.98l10.27 -8.73c1.32,-0.99 2.77,-1.84 4.17,-2.84 1.51,-1.07 2.57,-1.82 3.97,-3.02l13.01 -9.99c0.17,-0.13 0.4,-0.31 0.56,-0.44l9.43 -6.57c0.17,-0.13 0.39,-0.32 0.56,-0.45 0.17,-0.12 0.4,-0.3 0.58,-0.42l45.63 -27.37c0.21,-0.1 0.47,-0.21 0.69,-0.31l1.4 -0.59c0.22,-0.1 0.48,-0.21 0.69,-0.31 0.21,-0.1 0.47,-0.23 0.67,-0.34l76.25 -36.74c0.22,-0.1 0.5,-0.18 0.73,-0.28l83.44 -33.55c8.07,-2.77 8.63,-1.92 9.52,-5.84 -14.37,4.92 -28.69,11.05 -43,16.36 -98.3,36.46 -206.44,87.04 -271.14,171.86 -4.63,6.07 -7.74,10.84 -11.92,17.1 -48.52,72.61 -50.26,155.81 -25.42,238.5 4.99,16.63 25.33,71.19 34.48,82.85z"/>
   <path class="fil5" d="M167.64 1011.9c2.7,-3.63 1.17,-93.12 1.17,-97 0,-8.98 1.06,-15.19 1.03,-22.97l0.97 -171.03c0,-10.42 -1.84,-41.15 1,-48 3.8,-9.2 0.12,-14.83 3.42,-21.58l11.8 -31.2c0.56,-1.18 1.29,-2.68 1.99,-4.01l12.1 -19.9c3.05,-4.69 7.51,-8.71 11.28,-12.72l3.99 -4.01c0.35,-0.36 1.46,-1.48 1.49,-1.51l1.03 -0.97c4.93,-4.46 10.69,-9.27 16.62,-12.38 0.2,-0.11 0.47,-0.22 0.67,-0.33l5.05 -2.95c0.41,-0.25 1.77,-1.1 1.86,-1.14l6 -3c1.99,-1.02 0.22,-0.25 2.81,-1.19 1.28,-0.46 0.69,-0.06 2.25,-0.75 7.85,-3.46 7.38,-1.59 11.21,-3.79 2.08,-1.19 -1.28,-1.41 5.34,-1.67 7.5,-0.28 43.4,-0.81 48.99,0.21 4.04,0.73 4.8,2.24 9.12,2.87 3.99,0.58 9.15,3.47 13.27,5.74l12.85 8.14c0.81,0.59 1.05,0.68 1.81,1.2l22.47 21.52c0.15,0.15 0.37,0.34 0.51,0.49l12.8 18.2c0.13,0.17 0.31,0.4 0.43,0.57l10.78 23.23c0.98,3.59 -1.3,2.76 3.03,3.93 -5.71,-23.53 -24.45,-51.63 -36.94,-62.01 -18.1,-15.05 -38.15,-26.85 -71.02,-28.12 -62.02,-2.41 -100.49,37.31 -118.3,80.84 -11.82,28.86 -12.88,52.95 -12.88,86.29l0 299z"/>
   <path class="fil5" d="M2028.81 667.43c0,-7.79 0.36,-15.16 -2.18,-22.34 -1.52,-4.28 -0.17,-6.45 -1.2,-10.81 -1.47,-6.29 -2.13,-1.38 -2.63,-10.37 -0.34,-6.06 -4.72,-12.75 -5.92,-19.07 -0.25,-1.29 0.01,-1.08 -0.42,-2.58l-5.02 -10.99c-1.07,-2.56 -0.5,-2.49 -1.79,-5.2l-2.46 -5.55c-0.09,-0.21 -0.22,-0.47 -0.32,-0.68l-11.24 -19.76c-5.45,-9.27 -12.83,-18.2 -18.01,-26.99l-1.13 -1.87c-1.5,-2.49 -0.63,-0.87 -2.11,-3.89 -1.32,-2.71 -1.16,-2.33 -2.57,-4.43 4.1,-2.74 12.09,-14 15.19,-18.81 0.12,-0.19 0.26,-0.44 0.38,-0.62l6.44 -7.56c0.13,-0.17 0.31,-0.4 0.43,-0.57l6.47 -8.53c0.14,-0.15 0.36,-0.36 0.5,-0.51 0.14,-0.15 0.35,-0.36 0.48,-0.51l31.58 -40.42c3.45,-5.21 -1.11,-7.82 -4.92,-11.01l-13.09 -9.91c-0.16,-0.14 -0.38,-0.33 -0.54,-0.47l-59.67 -45.33c-6.02,-5.06 -13.54,-8.5 -19.34,-13.66 -0.15,-0.14 -0.36,-0.35 -0.51,-0.49 -0.15,-0.15 -0.35,-0.37 -0.5,-0.51 -2.61,-2.45 -2.1,-2.97 -6.43,-3.09l25.62 19.91c9.16,6.99 17.72,13.25 26.83,20.18 9.3,7.07 16.84,12.79 26.12,19.86 8.86,6.77 18.19,13.12 26.56,20.26l-32.56 41.84c-5.45,6.79 -30.81,37.88 -33.03,43.12 14.81,14.21 31,41.3 39.86,60.98 5.45,12.11 9.59,24.04 13.3,37.7 3.07,11.27 7.72,42.37 7.83,42.68z"/>
   <path class="fil6" d="M415.35 952.9c0.2,-53.99 0.01,-108.01 0.01,-162 0,-30.06 3.37,-134.01 -8.55,-153.83 0,2.67 -0.32,7.17 0.23,9.6 1.04,4.61 2.18,1.93 2.78,7.23 1.4,12.45 -2.37,18.44 1.85,28.15 2.25,5.17 1.14,23.3 1.14,29.85l0 203c-0.02,5.16 1.32,34.42 2.54,38z"/>
   <path class="fil5" d="M1137.81 114.12l20.07 -21.17c15.06,-15.16 28.06,-26.1 29.16,-53.03 0.61,-14.77 -2.93,-22.39 -5.91,-34.76l40.79 37.61c2.49,2.52 9.68,12.16 12.89,14.51 -0.32,-4.53 -2.84,-6.24 -5.4,-8.98l-7.7 -8.3c-0.81,-0.85 -0.35,-0.32 -1.42,-1.57l-28.84 -28.17c-0.16,-0.13 -0.37,-0.33 -0.53,-0.47 -0.15,-0.14 -0.36,-0.35 -0.51,-0.49 -3.59,-3.34 -4.57,-5.4 -10.6,-5.4 0,3.35 -0.52,6.29 0.67,9.34 0.08,0.22 0.23,0.45 0.33,0.66 0.98,2.15 1.68,1.9 2.01,5.99l0.05 30.07c-0.02,5.81 0.19,4.21 -1.79,8.21 -0.13,0.28 -0.53,1.05 -0.66,1.33l-28.19 35.82c-0.74,0.74 -0.93,0.92 -1.5,1.5 -0.21,0.2 -0.8,0.79 -1,1l-3.01 2.98c-0.15,0.15 -0.36,0.35 -0.51,0.5l-4.99 6c-2.47,3.19 -3.09,2.68 -3.41,6.82z"/>
   <path class="fil5" d="M1995.81 996.87c-0.05,-2.45 0.26,-1.4 -0.59,-3.38 -0.11,-0.27 -0.58,-1.01 -0.74,-1.26l-5.98 -7.02c-1.18,-1.58 -0.94,-1.37 -2.02,-2.97 -0.17,-0.25 -0.63,-0.96 -0.8,-1.2l-1.31 -1.7c-1.09,-1.36 -1.22,-1.48 -2.27,-2.73 -0.13,-0.16 -0.32,-0.39 -0.45,-0.55l-9.42 -9.58c-0.21,-0.2 -0.79,-0.79 -1,-1l-2 -2c-0.15,-0.14 -0.36,-0.35 -0.5,-0.5 -8.02,-8.05 -12.82,-10.15 -17.5,-14.49 -0.22,-0.2 -0.79,-0.8 -1,-1 -0.02,-0.02 -1.5,-1.4 -1.56,-1.45l-24.17 -15.83c-0.92,-0.58 -1.88,-1.26 -3.01,-1.99l-9.68 -5.32c2.27,-3.39 4.94,-4.29 9.18,-6.82l4.44 -2.56c7.02,-3.47 2.15,-0.75 7.22,-4.78l20.76 -15.25c0.15,-0.14 0.36,-0.34 0.5,-0.49 0.15,-0.14 0.36,-0.35 0.51,-0.5 6.83,-6.78 3.99,-6.12 8.39,-6.6l0 -3.47c-3.29,1.71 -3.44,3.44 -6.45,5.99l-20.2 15.83c-10.12,7.12 -27.98,16.02 -30.1,17.65 2,2.15 21.1,12.15 25.65,15.1 17.57,11.4 31.36,21.89 45.08,36.94l9.85 11.12c2.62,3.12 6.71,9.83 9.17,11.81z"/>
   <path class="fil5" d="M546.87 461.9c-4.63,0.37 -8.06,5.5 -13.31,10.75 -2.16,2.17 -3.98,3.77 -5.98,6.02 -1.3,1.45 -1.6,1.95 -2.71,3.29 -5.82,7.04 -5.55,5.33 -11.35,13.65l-4.76 6.23c-0.9,1.09 -1.72,2.06 -2.67,3.34 -3.27,4.37 -3.02,5.54 -6.28,6.72l-4.59 -7.41c-0.12,-0.18 -0.25,-0.44 -0.36,-0.64l-4.46 -8.54c-0.11,-0.18 -0.3,-0.4 -0.42,-0.58 -12.74,-18.72 -9.89,-17.15 -28.27,-36.73 -4.94,-5.28 -4.56,-4.82 -7.83,-5.1 7.57,9.18 13.71,12.74 26.01,29.91 9.98,13.93 16.65,31.35 19.81,35.81l21.83 -30.01c2.05,-2.63 4,-4.4 6.02,-6.97l19.32 -19.74z"/>
   <path class="fil5" d="M1808.08 407.9c2.66,1.53 11.9,3.68 15.76,4.97 25.54,8.58 33.63,16.91 42.88,20.76 15.16,-20.48 38.54,-46.52 52.41,-66.73l-10.87 10.45c-3.09,3.56 -2.59,4.78 -9.56,12.44l-21.3 26.7c-1.36,1.68 -1.77,2.15 -3.14,3.85l-1.31 1.69c-0.8,1.09 -0.78,1.14 -1.63,2.38 -1.91,2.81 -1.61,1.11 -2.51,4.49 -7.25,0 -3.77,0.27 -7.98,-2.02l-15.63 -7.37c-0.2,-0.1 -0.46,-0.23 -0.66,-0.34l-8.12 -3.87c-2.72,-1.26 -0.81,-0.59 -3.74,-1.26l-11.52 -3.49c-6.16,-1.83 -0.31,-2.65 -13.08,-2.65z"/>
   <path class="fil5" d="M164.35 467.9l3.13 21.23 2.92 -3.68c10.16,-16.52 18.12,-26.52 33.98,-39l15.88 -11.55c-4.33,0.08 -2.75,-0.38 -7.05,2.41l-31.24 27.74c-0.14,0.16 -0.33,0.39 -0.46,0.55l-11.19 14.8c-1.55,1.26 -0.4,0.74 -2.51,1.5l0 -12c-1.67,-1.16 -1.62,-1.05 -3.46,-2z"/>
  </g>
 </g>
</svg>
