<?xml version="1.0" standalone="no"?>
<!DOCTYPE svg PUBLIC "-//W3C//DTD SVG 20010904//EN"
 "http://www.w3.org/TR/2001/REC-SVG-20010904/DTD/svg10.dtd">
<svg version="1.0" xmlns="http://www.w3.org/2000/svg"
 width="1142.000000pt" height="218.000000pt" viewBox="0 0 1142.000000 218.000000"
 preserveAspectRatio="xMidYMid meet">

<g transform="translate(0.000000,218.000000) scale(0.100000,-0.100000)"
fill="#000000" stroke="none">
<path d="M1880 1928 c0 -15 -15 -44 -36 -69 -45 -54 -57 -85 -49 -126 13 -72
103 -97 156 -44 23 24 29 38 29 73 0 51 -26 109 -69 158 l-30 35 -1 -27z"/>
<path d="M2310 1714 c-30 -7 -145 -32 -255 -54 -110 -22 -214 -47 -232 -55
-55 -24 -67 -54 -59 -143 14 -148 54 -255 128 -337 46 -51 128 -105 128 -85 0
6 -13 42 -29 79 -16 38 -35 95 -41 127 -40 193 86 347 374 455 31 11 56 22 56
25 0 6 -6 4 -70 -12z"/>
<path d="M3340 1170 l0 -460 25 0 25 0 0 460 0 460 -25 0 -25 0 0 -460z"/>
<path d="M2689 1510 l-34 -40 -45 16 c-32 11 -69 15 -131 12 -140 -7 -231 -65
-291 -187 -19 -39 -22 -63 -23 -151 0 -121 19 -177 83 -243 60 -63 150 -97
255 -97 53 0 117 -29 146 -66 19 -24 22 -38 19 -86 -5 -66 -23 -91 -83 -119
-104 -48 -244 5 -261 98 l-6 33 -79 0 -79 0 0 -28 c0 -92 72 -192 172 -238 57
-26 73 -29 169 -29 101 0 109 2 175 35 111 57 157 136 157 267 -1 80 -31 145
-88 185 l-42 30 52 51 c43 44 54 63 70 119 26 99 13 186 -41 269 -17 26 -17
27 20 72 l37 45 -48 38 c-26 21 -53 42 -59 46 -7 5 -24 -7 -45 -32z m-137
-162 c69 -20 128 -107 128 -188 0 -44 -20 -98 -47 -131 -73 -87 -218 -77 -283
18 -35 52 -40 146 -10 207 41 85 122 121 212 94z"/>
<path d="M795 1476 c-16 -7 -41 -25 -54 -40 -32 -34 -39 -33 -43 7 l-3 32 -77
3 -78 3 0 -336 0 -335 85 0 85 0 0 205 c0 222 5 249 54 294 36 34 118 40 162
13 60 -38 68 -73 72 -304 l4 -208 79 0 79 0 0 208 c0 196 2 209 23 246 53 93
176 102 230 17 21 -34 22 -49 25 -253 l3 -218 80 0 81 0 -4 238 c-3 223 -4
240 -26 287 -46 100 -114 145 -228 153 -99 6 -159 -15 -215 -75 -26 -29 -44
-42 -47 -34 -9 26 -68 84 -99 97 -41 18 -149 17 -188 0z"/>
<path d="M10310 1355 c-58 -18 -90 -52 -97 -102 -7 -50 16 -97 57 -118 16 -8
64 -22 106 -30 86 -16 114 -35 114 -76 0 -74 -142 -89 -210 -24 -27 26 -29 26
-59 10 -36 -18 -32 -35 19 -79 81 -67 273 -47 315 34 32 61 11 146 -44 174
-15 8 -59 20 -97 27 -90 16 -124 33 -124 63 0 59 115 85 177 40 28 -21 30 -21
61 -5 l33 17 -28 26 c-16 14 -38 31 -49 37 -37 19 -125 22 -174 6z"/>
<path d="M5439 1347 c-69 -26 -109 -67 -134 -138 -41 -116 6 -242 110 -290 50
-23 152 -25 203 -4 163 69 176 327 21 414 -51 29 -148 37 -200 18z m168 -85
c80 -57 84 -192 8 -262 -23 -22 -36 -25 -95 -25 -59 0 -72 3 -95 25 -44 41
-58 77 -53 140 5 65 34 115 82 136 42 19 116 12 153 -14z"/>
<path d="M7416 1346 c-88 -33 -140 -115 -140 -221 0 -144 82 -225 229 -225 73
0 112 15 162 63 100 94 74 300 -46 366 -54 29 -149 38 -205 17z m172 -83 c85
-62 81 -225 -6 -275 -44 -26 -121 -24 -163 5 -96 64 -89 224 11 279 44 24 119
20 158 -9z"/>
<path d="M9359 1333 c-40 -21 -61 -40 -84 -77 -27 -44 -30 -58 -30 -130 0 -98
21 -147 84 -191 40 -28 48 -30 139 -30 92 0 99 2 139 30 l43 30 0 98 0 97 -92
0 -93 0 0 -35 0 -35 58 0 57 0 0 -46 c0 -42 -2 -46 -35 -60 -76 -31 -168 -9
-205 51 -25 40 -27 123 -4 171 36 76 136 106 215 65 l42 -22 25 24 24 24 -29
20 c-73 52 -171 57 -254 16z"/>
<path d="M3780 1130 l0 -220 40 0 40 0 0 65 0 65 88 0 c101 0 144 16 179 69
49 73 21 184 -57 223 -28 14 -61 18 -162 18 l-128 0 0 -220z m271 121 c29 -36
25 -94 -7 -120 -22 -17 -41 -21 -105 -21 l-79 0 0 86 0 86 86 -3 c76 -4 88 -7
105 -28z"/>
<path d="M4190 1315 l0 -35 75 0 75 0 0 -185 0 -185 35 0 35 0 0 185 0 185 75
0 75 0 0 35 0 35 -185 0 -185 0 0 -35z"/>
<path d="M4750 1130 l0 -220 40 0 40 0 2 160 3 160 69 -95 c38 -52 74 -95 80
-95 6 0 43 44 81 96 l70 95 3 -160 2 -161 40 0 40 0 0 220 0 220 -47 0 c-48 0
-48 -1 -95 -68 -27 -37 -58 -80 -71 -96 l-23 -28 -69 96 -70 96 -47 0 -48 0 0
-220z"/>
<path d="M5820 1130 l0 -220 155 0 155 0 0 35 0 35 -115 0 -115 0 0 185 0 185
-40 0 -40 0 0 -220z"/>
<path d="M6200 1130 l0 -220 40 0 40 0 0 220 0 220 -40 0 -40 0 0 -220z"/>
<path d="M6370 1130 l0 -220 40 0 39 0 3 150 3 150 116 -147 c91 -117 121
-149 142 -151 l27 -3 0 220 0 221 -40 0 -39 0 -3 -137 -3 -137 -108 137 c-102
129 -110 137 -143 137 l-34 0 0 -220z"/>
<path d="M6820 1131 l0 -221 123 0 c97 0 130 4 163 19 110 50 149 213 78 327
-45 74 -83 88 -236 92 l-128 4 0 -221z m240 131 c74 -37 103 -135 62 -211 -27
-50 -73 -71 -154 -71 l-68 0 0 150 0 150 63 0 c39 0 75 -6 97 -18z"/>
<path d="M7930 1130 l0 -220 40 0 40 0 0 220 0 220 -40 0 -40 0 0 -220z"/>
<path d="M8100 1130 l0 -220 40 0 40 0 0 146 c0 86 4 144 9 142 6 -1 60 -67
121 -145 89 -115 116 -143 136 -143 l24 0 0 220 0 220 -35 0 -35 0 0 -136 c0
-82 -4 -134 -10 -132 -5 2 -57 63 -115 136 -99 124 -107 132 -140 132 l-35 0
0 -220z"/>
<path d="M8530 1315 l0 -35 75 0 75 0 0 -185 0 -185 38 0 37 0 0 182 0 183 73
3 72 3 0 34 0 35 -185 0 -185 0 0 -35z"/>
<path d="M8960 1130 l0 -220 40 0 40 0 0 220 0 220 -40 0 -40 0 0 -220z"/>
<path d="M9790 1143 c-51 -115 -95 -214 -97 -220 -4 -9 7 -13 36 -13 37 0 42
3 61 40 l20 40 121 0 121 0 15 -40 c15 -38 18 -40 61 -40 31 0 43 4 39 13 -2
6 -47 105 -98 220 l-93 207 -47 0 -46 0 -93 -207z m184 23 c20 -47 36 -89 36
-95 0 -7 -30 -11 -80 -11 -62 0 -80 3 -80 14 0 20 71 176 80 176 4 0 24 -38
44 -84z"/>
<path d="M1802 1003 l3 -188 83 -3 82 -3 0 96 0 96 -55 51 c-31 28 -67 70 -81
94 -14 24 -28 44 -30 44 -3 0 -3 -84 -2 -187z"/>
</g>
</svg>
