<?xml version="1.0" encoding="iso-8859-1"?>
<!-- Generator: Adobe Illustrator 19.0.0, SVG Export Plug-In . SVG Version: 6.00 Build 0)  -->
<svg version="1.1" id="Layer_1" xmlns="http://www.w3.org/2000/svg" xmlns:xlink="http://www.w3.org/1999/xlink" x="0px" y="0px"
	 viewBox="0 0 392.544 392.544" style="enable-background:new 0 0 392.544 392.544;" xml:space="preserve">
<path style="fill:#FFC10D;" d="M197.131,199.057c-47.386,0-85.851,38.465-85.851,85.85s38.465,85.851,85.851,85.851
	s85.85-38.465,85.85-85.851S244.517,199.057,197.131,199.057z"/>
<path style="fill:#FFFFFF;" d="M197.131,250.904c-18.683,0-33.939,15.192-33.939,33.939c0,18.683,15.192,33.939,33.939,33.939
	c18.683,0,33.939-15.192,33.939-33.939C231.071,266.16,215.944,250.904,197.131,250.904z"/>
<g>
	<path style="fill:#194F82;" d="M197.131,229.118c-30.772,0-55.79,25.018-55.79,55.79s25.018,55.79,55.79,55.79
		s55.79-25.018,55.79-55.79S227.903,229.118,197.131,229.118z M197.131,318.847c-18.683,0-33.939-15.192-33.939-33.939
		c0-18.683,15.192-33.939,33.939-33.939c18.683,0,33.939,15.192,33.939,33.939C231.071,303.591,215.944,318.847,197.131,318.847z"/>
	<path style="fill:#194F82;" d="M257.059,195.437v-43.96c0-5.56-4.202-10.15-9.568-10.731l85.204-123.604
		c4.461-7.046,0-17.067-8.986-17.067H262.36c-3.556,0-6.982,1.745-8.986,4.719L196.42,87.348L139.402,4.73
		c-2.004-2.909-5.43-4.719-8.986-4.719H69.131c-8.404-0.388-14.287,9.762-9.051,17.067l85.398,123.863
		c-4.719,1.164-8.275,5.43-8.275,10.537v43.96c-28.832,19.329-47.838,52.234-47.838,89.471c0,59.345,48.291,107.636,107.636,107.636
		s107.636-48.291,107.636-107.636C304.832,247.671,285.826,214.831,257.059,195.437z M268.049,21.861h34.909l-81.907,118.691
		h-34.844L268.049,21.861z M235.208,162.338v21.915c-11.83-4.461-24.63-7.046-38.012-7.046s-26.182,2.521-38.012,7.046v-21.915
		H235.208z M89.883,21.797h34.844l58.44,84.752l-17.39,25.212L89.883,21.797z M197.131,370.758
		c-47.386,0-85.851-38.465-85.851-85.851s38.465-85.851,85.851-85.851s85.85,38.465,85.85,85.85S244.517,370.758,197.131,370.758z"
		/>
</g>
<g>
	<polygon style="fill:#56ACE0;" points="186.142,140.552 221.051,140.552 302.958,21.861 268.049,21.861 	"/>
	<polygon style="fill:#56ACE0;" points="183.168,106.548 124.727,21.797 89.883,21.797 165.778,131.76 	"/>
</g>
<g>
</g>
<g>
</g>
<g>
</g>
<g>
</g>
<g>
</g>
<g>
</g>
<g>
</g>
<g>
</g>
<g>
</g>
<g>
</g>
<g>
</g>
<g>
</g>
<g>
</g>
<g>
</g>
<g>
</g>
</svg>
